<svg id="Layer_1" data-name="Layer 1" xmlns="http://www.w3.org/2000/svg" width="150" height="50" viewBox="0 0 150 50"><defs><style>.cls-1{fill:#042e8f;}.cls-2{fill:none;}.cls-3{fill:#001c5d;}</style></defs><g id="astra-color"><path class="cls-1" d="M78.6,31.3c.7-.74,1.68-1.74,2-2.1,2,1.65,3.39,2,5,1.21a2,2,0,0,0,0-3.63,33.81,33.81,0,0,0-3.47-1.37c-2.28-.9-3.3-2.4-3-4.74A4.75,4.75,0,0,1,80,18.48c2-2.64,7.08-2.89,9.52-.44l-1.88,2A4.11,4.11,0,0,0,84,18.93,2.12,2.12,0,0,0,82.1,20.8a1.69,1.69,0,0,0,1.26,2c1,.41,2,.72,3,1.08,2.57.95,3.6,2.45,3.41,5a4.87,4.87,0,0,1-4.24,4.31A7.25,7.25,0,0,1,78.6,31.3Z"/><polygon class="cls-1" points="109.05 16.62 103.94 16.62 101.02 16.62 96.15 16.62 96.15 19.02 100.95 19.02 100.95 32.82 103.95 32.82 103.95 19.02 109.05 19.02 109.05 16.62"/><path class="cls-1" d="M69.64,32.82h3.42l-7-16.2H63.39l-7,16.2H59.8l1.38-3.6h7.08Zm-7.58-6,2.54-6.6h.24l2.54,6.6Z"/><path class="cls-1" d="M146.58,32.82H150l-7-16.2h-2.66l-7,16.2h3.43l1.38-3.6h7.07Zm-7.58-6,2.53-6.6h.25l2.54,6.6Z"/><path class="cls-1" d="M128.21,33.12l-4.28-7.28a4.34,4.34,0,0,0,3.79-4.45c0-4.77-4.93-4.77-4.93-4.77h-7.14v16.5h3v-6.9h2.07l3.93,6.9ZM118.65,19h4.1a2.14,2.14,0,0,1,1.71,2.31c0,1.88-1.11,2.15-1.53,2.19h-4.28Z"/><polygon class="cls-2" points="29.45 23.1 27.77 24.4 21.9 28.92 20.36 30.1 19.31 30.91 19.13 31.72 17.07 40.69 23.05 33.43 24.3 31.9 28.38 26.95 29.93 25.07 35.17 18.7 29.45 23.1"/><polygon class="cls-2" points="26.39 18.63 24.2 9.53 22.29 18.14 21.77 20.49 19.59 19.49 11.22 15.66 17.12 22.99 26.39 18.63"/><polygon class="cls-2" points="18.15 29.52 19.14 28.59 20.68 27.41 27.27 22.33 28.96 21.03 33.83 17.28 28.64 19.72 26.85 20.56 18.38 24.55 16.57 25.4 8.44 29.22 17.26 29.52 18.15 29.52"/><polygon class="cls-1" points="48.78 31.02 34.96 24.64 33.68 26.19 39.94 29.08 31.17 29.25 29.64 31.1 31.81 41.19 26.63 34.76 25.37 36.3 35.71 49.12 31.36 31.02 48.78 31.02"/><path class="cls-1" d="M44.9,9.91,28.18,17.77,24.13.88,20.4,17.7,4.55,10.46,15.31,23.82,0,31l17.23.24-3.88,17L24.29,35l9.09-11ZM11.22,15.66l8.37,3.83,2.18,1,.52-2.35L24.2,9.53l2.19,9.1L17.12,23ZM8.44,29.52l8.13-4.12,1.81-.85,8.47-4,1.79-.84,5.19-2.44L29,21l-1.69,1.3L20.68,27.4l-1.54,1.19-1,.63-.89.3ZM28.38,27,24.31,31.9l-1.26,1.53-6,7.26,2.05-9,.19-.81,1.05-.81,1.54-1.18,5.87-4.52,1.68-1.3,5.72-4.41-5.24,6.38Z"/><polygon class="cls-3" points="25.55 33.45 27.53 31.04 30.5 27.43 32.12 25.47 33.21 26 33.68 26.21 34.96 24.66 33.38 23.93 24.29 34.98 25.37 36.32 26.63 34.78 25.55 33.45"/><polygon class="cls-3" points="29.25 29.22 29.3 29.43 29.64 31.04 31.17 29.19 29.48 29.22 29.25 29.22"/></g></svg>