<svg id="Layer_1" data-name="Layer 1" xmlns="http://www.w3.org/2000/svg" width="180" height="49" viewBox="0 0 180 49">
  <defs>
    <style>
      .cls-1 {
        fill: #770078;
      }
    </style>
  </defs>
  <title>logo-bitmo-color</title>
  <g>
    <path class="cls-1" d="M0,2.913A2.482,2.482,0,0,1,.709,1.138,2.318,2.318,0,0,1,2.453.4a2.42,2.42,0,0,1,1.774.742,2.42,2.42,0,0,1,.741,1.775V21.176q5.035-7.42,12.78-7.422a15.4,15.4,0,0,1,11.164,4.712q4.773,4.71,4.775,12.585v.129q0,7.809-4.775,12.584A15.3,15.3,0,0,1,17.748,48.54q-7.873,0-12.78-7.1v4.2a2.473,2.473,0,0,1-.709,1.774,2.317,2.317,0,0,1-1.742.742A2.421,2.421,0,0,1,.741,47.41,2.419,2.419,0,0,1,0,45.636ZM25.233,40.6q3.354-3.486,3.357-9.358v-.129a12.947,12.947,0,0,0-3.422-9.326,11.079,11.079,0,0,0-8.325-3.581,11.533,11.533,0,0,0-8.454,3.646,12.529,12.529,0,0,0-3.614,9.2v.129a12.608,12.608,0,0,0,3.614,9.26,11.534,11.534,0,0,0,8.454,3.647A11.169,11.169,0,0,0,25.233,40.6Z"/>
    <path class="cls-1" d="M42.854,4.01a2.422,2.422,0,0,1,.84-1.9,3,3,0,0,1,2.064-.744,3.1,3.1,0,0,1,2.13.744,2.425,2.425,0,0,1,.84,1.9v.839a2.425,2.425,0,0,1-.84,1.9,3.1,3.1,0,0,1-2.13.742,3,3,0,0,1-2.064-.742,2.422,2.422,0,0,1-.84-1.9Zm.453,12.649a2.474,2.474,0,0,1,.709-1.775,2.317,2.317,0,0,1,1.742-.742,2.428,2.428,0,0,1,2.517,2.517V45.636a2.448,2.448,0,0,1-.709,1.806,2.368,2.368,0,0,1-1.744.71,2.532,2.532,0,0,1-2.515-2.516Z"/>
    <path class="cls-1" d="M64.12,46.12q-2.552-2.292-2.55-7.132V18.853H58.859a2.189,2.189,0,0,1-1.548-3.743,2.107,2.107,0,0,1,1.548-.645H61.57V6.591a2.475,2.475,0,0,1,.711-1.774,2.311,2.311,0,0,1,1.742-.743,2.417,2.417,0,0,1,1.774.743,2.421,2.421,0,0,1,.743,1.774v7.874h8.647a2.214,2.214,0,0,1,1.581.645,2.106,2.106,0,0,1,0,3.1,2.219,2.219,0,0,1-1.581.645H66.54v19.49q0,5.55,5.615,5.55a10.236,10.236,0,0,0,2-.193l1.033-.258a2.01,2.01,0,0,1,1.517.645,2.091,2.091,0,0,1,.612,1.484,1.926,1.926,0,0,1-1.42,1.937,12.784,12.784,0,0,1-4.9.9A9.9,9.9,0,0,1,64.12,46.12Z"/>
    <path class="cls-1" d="M85.9,16.659a2.476,2.476,0,0,1,.711-1.775,2.313,2.313,0,0,1,1.742-.742,2.478,2.478,0,0,1,1.774.71,2.4,2.4,0,0,1,.743,1.807V20.08q4.194-6.325,10.778-6.326A11.054,11.054,0,0,1,112.362,20.4q4.322-6.648,11.745-6.648a11.716,11.716,0,0,1,9.068,3.615q3.324,3.613,3.322,9.809V45.636a2.485,2.485,0,0,1-.708,1.774,2.321,2.321,0,0,1-1.744.742,2.535,2.535,0,0,1-2.518-2.516V28.34q0-4.841-2.289-7.454a8.011,8.011,0,0,0-6.358-2.614,8.628,8.628,0,0,0-6.551,2.775,10.572,10.572,0,0,0-2.614,7.551V45.636a2.532,2.532,0,0,1-2.515,2.516,2.318,2.318,0,0,1-1.744-.742,2.481,2.481,0,0,1-.709-1.774V28.212a10.773,10.773,0,0,0-2.291-7.293,7.887,7.887,0,0,0-6.291-2.647,8.526,8.526,0,0,0-6.648,2.969,10.92,10.92,0,0,0-2.646,7.55V45.636a2.442,2.442,0,0,1-.711,1.806,2.531,2.531,0,0,1-3.548-.032,2.475,2.475,0,0,1-.711-1.774Z"/>
    <path class="cls-1" d="M150.151,43.538a16.882,16.882,0,0,1-4.937-12.229V31.18a16.99,16.99,0,0,1,5-12.294,17.643,17.643,0,0,1,24.814-.065A16.829,16.829,0,0,1,180,31.051v.129a16.936,16.936,0,0,1-5.035,12.294A16.757,16.757,0,0,1,162.51,48.6,16.548,16.548,0,0,1,150.151,43.538Zm21.3-3.13a12.928,12.928,0,0,0,3.454-9.1V31.18a12.982,12.982,0,0,0-3.583-9.23,11.617,11.617,0,0,0-8.808-3.807,11.338,11.338,0,0,0-8.744,3.775,13.049,13.049,0,0,0-3.453,9.133v.129a12.922,12.922,0,0,0,3.55,9.2,12.159,12.159,0,0,0,17.584.032Z"/>
  </g>
</svg>
