<svg id="Isolation_Mode" data-name="Isolation Mode" xmlns="http://www.w3.org/2000/svg" width="251.6" height="32.6" viewBox="0 0 251.6 32.6">
  <defs>
    <style>
      .cls-1 {
        fill: #fff;
      }
    </style>
  </defs>
  <title>cs-logo-horizontal-white</title>
  <path class="cls-1" d="M65.6,20.8a30.54,30.54,0,0,0-7-6.4h.5c2.4.3,3.3-.2,3.6-.6v-.1a1.929,1.929,0,0,0,.3-1v-.5c-.1-.8-.6-2.3-2.8-3.7A43.507,43.507,0,0,0,56,6.6a30.73,30.73,0,0,1-2.9-1.3,7.93,7.93,0,0,0-.9-.4A50.679,50.679,0,0,0,35.5,1.5c-5.6.1-5.3,2.6-5.3,2.6s-.5,2.2,5.3,2a59.157,59.157,0,0,1,13,1.5A8.162,8.162,0,0,1,52,9.3a3.352,3.352,0,0,0,0,1,.774.774,0,0,0,.1.3A39.534,39.534,0,0,0,37.8,7.9a42.222,42.222,0,0,0-17,4c-.6.3-1.1.6-1.7.9-2,1.1-4.9,2.8-5.4,3.1-.8.5-1.6,1.1-2.4,1.6l-.3.3c-.7.5-1.3,1-2,1.5-.1,0-2.9,2.4-4.3,3.5l-2.5,2,1-.5a.1.1,0,0,1,.1.1L1.7,25.9c-.1,0,0,.1.1.1l1.3-.8a.1.1,0,0,1,.1.1l-.6.9v.1l.7-.4h0L1,28.2H1l1.8-1.1c.1,0,.1,0,.1.1l-.8.9h0l2.1-1h0l-.9,1.1h0l2-1.1a.1.1,0,0,1,.1.1l-.6.6a.1.1,0,0,0,.1.1l1.2-.7a.1.1,0,0,1,.1.1l-.7.7c-.1.1,0,.2.1.1l.9-.5-.3.3s.7-.4,1.1-.6h.1l1-.6c1-.6,2-1.3,3-1.9a18.758,18.758,0,0,0,1.8-1.2,74.475,74.475,0,0,1,7.7-4.4,40.256,40.256,0,0,1,13.3-4.9s16.6-3.9,29,9.1l.2.2c.5.5,1.7,1.4,2.8.6C66.2,24.5,67.4,23.5,65.6,20.8Z" transform="translate(-1 -1.2)"/>
  <path class="cls-1" d="M99.7,24.3c.2,0,.5-.1.6-.1V14.6a7.8,7.8,0,0,0-.3-2.2,4.608,4.608,0,0,0-.9-1.7,3.807,3.807,0,0,0-1.6-1.1A6.249,6.249,0,0,0,95,9.2a16.858,16.858,0,0,0-2.5.2,13.044,13.044,0,0,0-1.3.3l.2,1.1a4.649,4.649,0,0,1,.9-.3,8.8,8.8,0,0,1,2.6-.3,4.638,4.638,0,0,1,2.1.4,3.482,3.482,0,0,1,1.3,1.1,3.946,3.946,0,0,1,.6,1.5,8.6,8.6,0,0,1,.1,1.6v1.5l-.4-.2a.584.584,0,0,0-.4-.1h-.7c-.3,0-.6-.1-.9-.1h-.9a9.518,9.518,0,0,0-2.5.3,5.989,5.989,0,0,0-2,.8,4.357,4.357,0,0,0-1.3,1.4,4.211,4.211,0,0,0-.4,2,4.638,4.638,0,0,0,.4,2.1A3.815,3.815,0,0,0,91,23.9a4.465,4.465,0,0,0,1.7.8,7.8,7.8,0,0,0,2.2.3,12.1,12.1,0,0,0,1.9-.1,6.959,6.959,0,0,0,1.6-.2,4.6,4.6,0,0,1,1.3-.4Zm-4.4-.6a8.807,8.807,0,0,1-1.7-.2,3.506,3.506,0,0,1-1.4-.6,2.445,2.445,0,0,1-.9-1.1,3.808,3.808,0,0,1-.3-1.6,3.453,3.453,0,0,1,.5-1.8,2.94,2.94,0,0,1,1.2-1,8.8,8.8,0,0,1,1.5-.5,8.084,8.084,0,0,1,1.5-.1,11.491,11.491,0,0,1,2.1.2,5.307,5.307,0,0,1,1.1.3l.2.1v5.9h-.2c-.4.1-.9.1-1.5.2A7.487,7.487,0,0,1,95.3,23.7ZM85.7,13.5a8.342,8.342,0,0,0-.8-1.2l-.9-.9a2.664,2.664,0,0,0-1-.6,4.179,4.179,0,0,0-1-.4,9.484,9.484,0,0,0-2.3-.5,6.388,6.388,0,0,0-2.8.6,6.524,6.524,0,0,0-2.1,1.6,7.1,7.1,0,0,0-1.3,2.2,6.436,6.436,0,0,0-.5,2.4,6.874,6.874,0,0,0,.5,2.4,9.8,9.8,0,0,0,1.3,2.2,8.34,8.34,0,0,0,2.1,1.6,6.388,6.388,0,0,0,2.8.6,8.519,8.519,0,0,0,2.3-.4,6.9,6.9,0,0,0,1-.4c.3-.2.7-.4,1-.6a7.637,7.637,0,0,0,.9-.9,3.6,3.6,0,0,0,.8-1.2h1.5a5.978,5.978,0,0,1-.8,1.6,4.263,4.263,0,0,1-1.1,1.2l-1.2.9c-.4.2-.8.4-1.3.6a8.149,8.149,0,0,1-3.1.6,7.1,7.1,0,0,1-2.6-.4,10.243,10.243,0,0,1-2.1-1A5.356,5.356,0,0,1,73.5,22a16.287,16.287,0,0,1-1.1-1.7,6.356,6.356,0,0,1-.6-1.8,11.135,11.135,0,0,1-.2-1.7,11.135,11.135,0,0,1,.2-1.7,6.356,6.356,0,0,1,.6-1.8,8.712,8.712,0,0,1,1.1-1.8A4.629,4.629,0,0,1,75.1,10a10.344,10.344,0,0,1,2.1-1.1,7.457,7.457,0,0,1,2.6-.4,15.469,15.469,0,0,1,3.1.6c.4.2.8.4,1.3.6a4.7,4.7,0,0,1,1.2.9,6.278,6.278,0,0,1,1.1,1.2,7.973,7.973,0,0,1,.8,1.6Zm19.1-4.2v3.3a4.811,4.811,0,0,1,.9-1.1,7.006,7.006,0,0,1,1-.8c.4-.2.7-.4,1.1-.6a4.875,4.875,0,0,1,1.1-.4,10.855,10.855,0,0,1,2.5-.4v1.4a6.648,6.648,0,0,0-2.1.3,8.865,8.865,0,0,0-1.7.8,4.263,4.263,0,0,0-1.2,1.1l-.9,1.2a6.117,6.117,0,0,0-.5,1.2,5.073,5.073,0,0,0-.2.9v8.6h-1.4V9.3Zm23.6-.1V25.7a7.844,7.844,0,0,1-.2,1.4,16.59,16.59,0,0,1-.6,1.6,7.641,7.641,0,0,1-1.1,1.6,6.73,6.73,0,0,1-1.5,1.4,7.847,7.847,0,0,1-4.5,1.4V31.4a6.448,6.448,0,0,0,2-.3,7.973,7.973,0,0,0,1.6-.8,4.263,4.263,0,0,0,1.2-1.1,6.014,6.014,0,0,0,.9-1.3,5.023,5.023,0,0,0,.5-1.3,5.16,5.16,0,0,0,.2-1.1V21.4a9.382,9.382,0,0,1-.9,1.2,9.016,9.016,0,0,1-1,.9,3.881,3.881,0,0,1-1.1.6,4.875,4.875,0,0,1-1.1.4,6.9,6.9,0,0,1-2.5.4,7.79,7.79,0,0,1-3.1-.6,8.989,8.989,0,0,1-2.6-1.7,8.518,8.518,0,0,1-1.7-2.5,8.291,8.291,0,0,1-.6-3.2,8.662,8.662,0,0,1,.6-3.2,7.386,7.386,0,0,1,1.7-2.5,8.518,8.518,0,0,1,2.5-1.7,8.149,8.149,0,0,1,3.1-.6,10.855,10.855,0,0,1,2.5.4c.3.1.7.3,1.1.4.4.2.7.4,1.1.6a2.836,2.836,0,0,1,1,.9,6.233,6.233,0,0,1,.9,1.2V8.9h1.6Zm-5.4,14a6.435,6.435,0,0,0,3.5-3.5,7.512,7.512,0,0,0,.5-2.6,7.512,7.512,0,0,0-.5-2.6A6.435,6.435,0,0,0,123,11a7.01,7.01,0,0,0-5.2,0,6.435,6.435,0,0,0-3.5,3.5,7.512,7.512,0,0,0-.5,2.6,7.512,7.512,0,0,0,.5,2.6,6.435,6.435,0,0,0,3.5,3.5,7.512,7.512,0,0,0,2.6.5A5.753,5.753,0,0,0,123,23.2Zm8.2-9.4a7.386,7.386,0,0,1,1.7-2.5,8.518,8.518,0,0,1,2.5-1.7,8.308,8.308,0,0,1,6.2,0,7.386,7.386,0,0,1,2.5,1.7,8.518,8.518,0,0,1,1.7,2.5,8.308,8.308,0,0,1,0,6.2,7.386,7.386,0,0,1-1.7,2.5,8.518,8.518,0,0,1-2.5,1.7,8.308,8.308,0,0,1-6.2,0,7.386,7.386,0,0,1-2.5-1.7,8.518,8.518,0,0,1-1.7-2.5,8.308,8.308,0,0,1,0-6.2Zm9.9,9a6.435,6.435,0,0,0,3.5-3.5,7.082,7.082,0,0,0,.5-2.6,7.512,7.512,0,0,0-.5-2.6,6.435,6.435,0,0,0-3.5-3.5,7.082,7.082,0,0,0-2.6-.5,7.512,7.512,0,0,0-2.6.5,6.435,6.435,0,0,0-3.5,3.5,7.082,7.082,0,0,0-.5,2.6,7.512,7.512,0,0,0,.5,2.6,6.435,6.435,0,0,0,3.5,3.5,7.082,7.082,0,0,0,2.6.5A5.753,5.753,0,0,0,141.1,22.8Z" transform="translate(-1 -1.2)"/>
  <path class="cls-1" d="M161.6,11.7a1.612,1.612,0,0,0-.4-.7,2.092,2.092,0,0,0-.6-.4,1.854,1.854,0,0,0-.7-.2,2.92,2.92,0,0,0-.9.2,3.508,3.508,0,0,0-.8.5,1.794,1.794,0,0,0-.5.7l-.3.9v.7a2.353,2.353,0,0,0,.2.8,1.407,1.407,0,0,0,.7.6,2.5,2.5,0,0,0,1.3.3,2.5,2.5,0,0,1,1.4.4,4.487,4.487,0,0,1,1.3,1.1,3.465,3.465,0,0,1,.8,1.6,4.8,4.8,0,0,1,.1,2.1,6.973,6.973,0,0,1-.6,1.7,6.57,6.57,0,0,1-1.2,1.7,5.936,5.936,0,0,1-1.8,1.3,4.709,4.709,0,0,1-2.4.5,3.922,3.922,0,0,1-1.8-.4,7.1,7.1,0,0,1-1.4-1,3.606,3.606,0,0,1-.8-1.5,3.673,3.673,0,0,1-.1-1.8h1.4a2.161,2.161,0,0,0,.1,1.1,3.7,3.7,0,0,0,.5,1.1,4.5,4.5,0,0,0,1,.9,3.194,3.194,0,0,0,1.4.3,7.844,7.844,0,0,0,1.4-.2,5.388,5.388,0,0,0,1.3-.7,4.76,4.76,0,0,0,1.7-3.1,2.573,2.573,0,0,0-.1-1.5,3.369,3.369,0,0,0-.6-1.2,6.47,6.47,0,0,0-.9-.8,1.613,1.613,0,0,0-.9-.3,5.9,5.9,0,0,1-1.4-.2,4.5,4.5,0,0,1-1.2-.6,2.589,2.589,0,0,1-.7-1.1,3.145,3.145,0,0,1-.1-1.7,7.6,7.6,0,0,1,.4-1.1,4.184,4.184,0,0,1,.8-1.2,4,4,0,0,1,1.2-1,3.287,3.287,0,0,1,1.7-.4,5.067,5.067,0,0,1,1.3.2,2.361,2.361,0,0,1,.9.6,2.177,2.177,0,0,1,.5.8c.1.3.2.5.3.8,0,.3.1.5.1.7v.5h-1.4a8.662,8.662,0,0,0-.2-1ZM168,9.2l-.6,3.6a4,4,0,0,1,1-1.2c.4-.3.7-.6,1.1-.9a3.379,3.379,0,0,1,1.2-.6,7.6,7.6,0,0,1,1.1-.4,10.891,10.891,0,0,1,2.6-.5,6.172,6.172,0,0,1,3.1.7,5.485,5.485,0,0,1,2.2,1.8,7.739,7.739,0,0,1,1.2,2.6,10.633,10.633,0,0,1,.1,3.1,8.864,8.864,0,0,1-1.1,3.1,10.038,10.038,0,0,1-2,2.6,12.705,12.705,0,0,1-2.7,1.8,8.84,8.84,0,0,1-3.3.7,10.054,10.054,0,0,1-2.5-.4c-.3-.1-.7-.3-1-.4-.3-.2-.7-.4-1-.6a3.45,3.45,0,0,1-.8-.9,6.658,6.658,0,0,1-.6-1.2l-1.9,11.7h-1.4l4-24.4,1.3-.2Zm6.6,14.3a10.887,10.887,0,0,0,2.3-1.4,8.7,8.7,0,0,0,1.7-2.1,6.22,6.22,0,0,0,.9-2.6,5.665,5.665,0,0,0-.1-2.6,5.119,5.119,0,0,0-1-2.1,4.887,4.887,0,0,0-1.8-1.4,4.709,4.709,0,0,0-2.4-.5,7.512,7.512,0,0,0-2.6.5,10.887,10.887,0,0,0-2.3,1.4,6.845,6.845,0,0,0-1.7,2.1,6.22,6.22,0,0,0-.9,2.6,5.665,5.665,0,0,0,.1,2.6,5.119,5.119,0,0,0,1,2.1,4.887,4.887,0,0,0,1.8,1.4,4.709,4.709,0,0,0,2.4.5A8.51,8.51,0,0,0,174.6,23.5ZM185.1,9.8l-.6,3.4a10.949,10.949,0,0,1,1-1.1c.4-.3.7-.6,1.1-.9l1.2-.6a7.6,7.6,0,0,1,1.1-.4,10.855,10.855,0,0,1,2.5-.4l-.2,1.4a6.648,6.648,0,0,0-2.1.3,14.167,14.167,0,0,0-1.8.8,7.551,7.551,0,0,0-1.4,1.1,5.3,5.3,0,0,0-1,1.2,7.459,7.459,0,0,0-.7,1.2,2.236,2.236,0,0,0-.3,1l-1.5,8.8H181l2.6-15.8Zm10.1-6.3a.908.908,0,0,1-.7-.3,1.077,1.077,0,0,1-.2-.8,1.374,1.374,0,0,1,.5-.8,1.33,1.33,0,0,1,.8-.3.908.908,0,0,1,.7.3,1.077,1.077,0,0,1,.2.8,1.374,1.374,0,0,1-.5.8A1.909,1.909,0,0,1,195.2,3.5Zm-4.5,22h1.4l2.8-16.7h-1.4ZM196.9,9h1.4l-.6,3.6c0-.1.1-.2.3-.4l.7-.7a5.305,5.305,0,0,1,1.1-.9,6.376,6.376,0,0,1,1.4-.8,8.51,8.51,0,0,1,1.7-.6,6.154,6.154,0,0,1,1.9-.2,7.173,7.173,0,0,1,2.9.6,6.2,6.2,0,0,1,2.2,1.7,7.065,7.065,0,0,1,1.3,2.6,6.835,6.835,0,0,1,.1,3.2l-1.4,8.4h-1.4l1.4-8.4a8.845,8.845,0,0,0,0-2.3,4.851,4.851,0,0,0-.8-2.1,5.234,5.234,0,0,0-1.7-1.6,5.666,5.666,0,0,0-2.7-.6,7.613,7.613,0,0,0-2.1.3,14.167,14.167,0,0,0-1.8.8,7.551,7.551,0,0,0-1.4,1.1,6.885,6.885,0,0,0-1.1,1.3,4.15,4.15,0,0,0-.7,1.3,7.6,7.6,0,0,0-.4,1.1l-.4,2.3c-.1.8-.3,1.7-.5,2.9-.2,1.1-.4,2.5-.7,4h-1.4ZM217,1.2l-1.3,7.6h6.5l-.2,1.6h-6.5l-1.2,7.2a5.665,5.665,0,0,0,.1,2.6,6.809,6.809,0,0,0,1,2.1,4.887,4.887,0,0,0,1.8,1.4,6.551,6.551,0,0,0,2.5.5l-.2,1.5a6.565,6.565,0,0,1-3.2-.7,7.871,7.871,0,0,1-2.2-1.8,6.2,6.2,0,0,1-1.2-2.6,10.073,10.073,0,0,1-.1-3l2.7-16.3,1.5-.1Zm34.6,12h-26l.8-4.4h26.2Zm-2.5,6.1H224.5l.8-4.3h24.8Zm-3,6.5H223.5l.7-4.5h22.9Z" transform="translate(-1 -1.2)"/>
</svg>
