<svg id="Layer_1" data-name="Layer 1" xmlns="http://www.w3.org/2000/svg" width="210" height="46" viewBox="0 0 210 46">
  <defs>
    <style>
      .cls-1 {
        fill: #499dd6;
      }

      .cls-2 {
        fill: #434b68;
      }

      .cls-3 {
        fill: #b3b8c3;
      }

      .cls-4 {
        fill: #54ba60;
      }
    </style>
  </defs>
  <title>encast-logo-full-color</title>
  <g>
    <path class="cls-1" d="M16.642,24.119H2.33a2.318,2.318,0,0,0-2.3,2.335,2.2,2.2,0,0,0,.02.281A21.035,21.035,0,0,0,5.033,37.946a2.3,2.3,0,0,0,3.249.254c.053-.045.1-.093.152-.142L18.4,27.981a2.3,2.3,0,0,0-1.644-3.924"/>
    <path class="cls-2" d="M23.668,2.4A2.33,2.33,0,0,0,21.344.06c-.056,0-.112,0-.167.006a24.241,24.241,0,0,0-14.7,5.917A20.57,20.57,0,0,0,.013,19.324a2.341,2.341,0,0,0,2.052,2.6,2.13,2.13,0,0,0,.265.016H21.338a2.329,2.329,0,0,0,2.33-2.329Z"/>
    <path class="cls-3" d="M10.676,42.729a25.542,25.542,0,0,0,10.463,3.264,2.3,2.3,0,0,0,2.484-2.11c0-.065.008-.13.007-.2V31.232A2.3,2.3,0,0,0,19.694,29.6l-9.5,9.517a2.3,2.3,0,0,0-.021,3.259,2.377,2.377,0,0,0,.469.366"/>
    <path class="cls-4" d="M42.9,6.1a24.4,24.4,0,0,0-14.561-6,2.317,2.317,0,0,0-2.485,2.136q-.006.084-.006.168V43.676a2.3,2.3,0,0,0,2.3,2.312c.065,0,.13,0,.2-.008a24.747,24.747,0,0,0,14.5-5.917q6.851-6.09,6.851-17.052,0-10.738-6.776-16.928"/>
    <path class="cls-2" d="M80.257,33.524c-1.831,3.189-4.434,6.552-10.812,6.552s-12.22-4.335-12.22-14.611c0-9.094,4.534-14.612,11.46-14.612,5.842,0,10.7,3.737,10.7,12.768v2.6H61.124c0,6.229,3.737,10.5,8.321,10.5a8.719,8.719,0,0,0,7.785-4.758ZM75.5,22.861c0-5.194-2.492-8.719-6.7-8.719-4.7,0-7.237,3.463-7.561,8.719Z"/>
    <path class="cls-2" d="M91.393,11.389v3.737h.112a11.534,11.534,0,0,1,8.321-4.335c4.16,0,8.109,2.167,8.109,8.221V39.466h-3.886V19.174c0-3.737-1.782-4.982-4.6-4.982s-6.228,2.379-8.047,4.272V39.515H87.544V11.389Z"/>
    <path class="cls-2" d="M133.632,19.772c-1.083-3.413-3.3-5.58-6.651-5.58-4.809,0-7.624,4.11-7.624,11.21s2.815,11.211,7.624,11.211c3.562,0,5.568-1.246,7.723-5.194l3.139,1.407c-2.816,4.759-5.294,7.15-10.862,7.15-7.026,0-11.51-5.518-11.51-14.611s4.484-14.611,11.51-14.611c5.779,0,8.482,3.251,10.264,7.635Z"/>
    <path class="cls-2" d="M144.033,16.832a11.5,11.5,0,0,1,10.538-5.954c4.759,0,9.729,2.267,9.729,8.446V33.5a21.789,21.789,0,0,0,.648,6.066h-4l-.436-3.9a12.543,12.543,0,0,1-9.292,4.435c-4.323,0-8-2.6-8-7.736,0-6.228,4.7-9.255,17.189-11.472V19.324c0-3.737-2.491-5.145-5.779-5.145a7.263,7.263,0,0,0-7.188,4.385Zm16.38,7.474c-8.918,1.57-13.29,4.173-13.29,8.059a4.621,4.621,0,0,0,4.646,4.335c2.815,0,6.377-2.055,8.644-4.658Z"/>
    <path class="cls-2" d="M172.945,32.378a9.487,9.487,0,0,0,8.021,4.384c4.211,0,6.054-2.267,6.054-4.658,0-7.15-16.641-3.351-16.318-13.64.162-4.87,3.887-7.636,9.293-7.573a12.353,12.353,0,0,1,9.616,4.982l-2.7,2.379c-2.167-2.653-4.21-3.948-7.237-3.948-3.3,0-5.082,1.681-5.082,4.173,0,6.116,16.318,2.977,16.318,13.477,0,5.469-4.759,8.222-9.841,8.222a14,14,0,0,1-11.211-5.357Z"/>
    <path class="cls-2" d="M198.729,11.389V2.134h3.887v9.255h6.489V14.74h-6.489V34.769c0,1.246.921,1.944,3.188,1.944a21.942,21.942,0,0,0,3.463-.274v3.188a17.858,17.858,0,0,1-4.534.436c-4.21,0-6-1.083-6-4.658V14.727h-4.6V11.376Z"/>
  </g>
</svg>
