<svg id="Layer_1" data-name="Layer 1" xmlns="http://www.w3.org/2000/svg" width="391" height="50.574" viewBox="0 0 391 50.574">
  <defs>
    <style>
      .cls-1 {
        fill: #00a9df;
      }
    </style>
  </defs>
  <title>equitymultiple-logo-full-color</title>
  <g>
    <rect class="cls-1" x="151.118" y="11.387" width="5.938" height="26.914"/>
    <path class="cls-1" d="M192.753,22.737,186.3,12.06H160.785v5.377H169v21.6h5.938V17.374h7.708L189.72,28.24V38.918h6V28.3l10.8-15.918V12.06h-6.886Z" transform="translate(0 -0.672)"/>
    <path class="cls-1" d="M223.2,26.907,213.348,12.06h-3.285V38.973h2.716V15.787L222.887,30.76h.767L233.7,15.977v23h2.707V12.06H233Z" transform="translate(0 -0.672)"/>
    <polygon class="cls-1" points="274.756 11.387 272.102 11.387 272.102 38.301 289.727 38.301 289.727 35.774 274.756 35.774 274.756 11.387"/>
    <path class="cls-1" d="M287.2,14.587h9.477V38.973H299.4V14.587h9.478V12.06H287.138v2.527Z" transform="translate(0 -0.672)"/>
    <rect class="cls-1" x="313.23" y="11.387" width="2.716" height="26.914"/>
    <polygon class="cls-1" points="352.273 11.387 349.556 11.387 349.556 38.301 367.245 38.301 367.245 35.774 352.273 35.774 352.273 11.387"/>
    <path class="cls-1" d="M374.321,36.446v-9.73h15.542V24.191H374.321v-9.6h16.3V12.06H371.668V38.973H391V36.446Z" transform="translate(0 -0.672)"/>
    <polygon class="cls-1" points="64.441 38.238 85.983 38.238 85.983 32.741 70.379 32.741 70.379 27.561 81.751 27.561 81.751 22.065 70.379 22.065 70.379 16.821 85.983 16.821 85.983 11.387 64.441 11.387 64.441 38.238"/>
    <path class="cls-1" d="M116.056,25.454A13.8,13.8,0,1,0,102.282,39.29a13.329,13.329,0,0,0,7.645-2.331l3.724,3.72,3.853-3.853L113.777,33.1A13.617,13.617,0,0,0,116.056,25.454Zm-13.774,8.4a8.332,8.332,0,1,1,.016,0Z" transform="translate(0 -0.672)"/>
    <path class="cls-1" d="M139.557,26.716a6.318,6.318,0,1,1-12.635.007V12.06h-5.938V26.716a12.257,12.257,0,1,0,24.513.275c0-.092,0-.183,0-.275V12.06h-5.94Z" transform="translate(0 -0.672)"/>
    <path class="cls-1" d="M262.247,28.3a8.025,8.025,0,0,1-16.048.221c0-.074,0-.147,0-.221V12.06h-2.716V28.3a10.678,10.678,0,1,0,21.355.019V12.06h-2.716V28.3Z" transform="translate(0 -0.672)"/>
    <path class="cls-1" d="M335.532,12.06H323.465V38.973h2.717V30H335.6a8.966,8.966,0,0,0,8.971-8.959v-.012A9.065,9.065,0,0,0,335.532,12.06Zm0,15.415h-9.413V14.587h9.413a6.445,6.445,0,0,1,0,12.888Z" transform="translate(0 -0.672)"/>
    <path class="cls-1" d="M43.529,11.934,24.7,1.193a3.947,3.947,0,0,0-3.918,0L1.959,11.934A3.8,3.8,0,0,0,0,15.281V36.7a3.878,3.878,0,0,0,1.959,3.347L20.785,50.725a3.947,3.947,0,0,0,3.918,0L43.529,40.047A3.875,3.875,0,0,0,45.488,36.7V15.281A3.8,3.8,0,0,0,43.529,11.934ZM12.637,24.063H25.271v3.792H12.637ZM32.852,35.432H12.637V31.645H32.852Zm0-15.162H12.637V16.483H32.852Z" transform="translate(0 -0.672)"/>
  </g>
</svg>
