<?xml version="1.0" encoding="utf-8"?>
<!-- Generator: Adobe Illustrator 23.0.1, SVG Export Plug-In . SVG Version: 6.00 Build 0)  -->
<svg version="1.1" id="Layer_1" xmlns="http://www.w3.org/2000/svg" xmlns:xlink="http://www.w3.org/1999/xlink" x="0px" y="0px"
	 viewBox="0 0 525.109 112.502" style="enable-background:new 0 0 525.109 112.502;" xml:space="preserve">
<style type="text/css">
	.st0{fill:#409FC6;}
	.st1{fill:#323F46;}
</style>
<g>
	<g>
		<path class="st0" d="M525.109,39.297c0,12.681,0.001,25.361-0.006,38.042c0,0.295-0.088,0.59-0.134,0.884
			c-0.216-0.185-0.447-0.354-0.647-0.556c-6.258-6.316-12.51-12.638-18.769-18.953c-6.871-6.931-13.75-13.854-20.622-20.784
			c-5.742-5.79-11.48-11.585-17.221-17.377c-5.981-6.035-11.964-12.068-17.944-18.104c-0.648-0.654-1.286-1.318-1.917-1.987
			c-0.094-0.1-0.127-0.257-0.188-0.388c0.125-0.024,0.249-0.059,0.374-0.068c0.157-0.012,0.315-0.004,0.473-0.004
			c25.125,0,50.249,0,75.374,0c1.226,0,1.227,0.001,1.227,1.252C525.109,13.936,525.109,26.616,525.109,39.297z"/>
		<path class="st1" d="M174.759,70.946c0-13.105,0-26.21,0-39.315c0-1.037,0.002-1.038,1.009-1.039
			c3.342-0.001,6.685,0.028,10.026-0.021c0.784-0.011,1.069,0.246,1.266,0.981c4.307,16.045,8.639,32.083,12.968,48.122
			c0.993,3.68,1.989,7.359,2.99,11.036c0.044,0.163,0.156,0.307,0.237,0.461c0.01-0.176,0.049-0.355,0.027-0.526
			c-0.993-7.686-1.23-15.405-1.185-23.148c0.069-11.947,0.018-23.894,0.019-35.841c0-1.062,0.002-1.063,1.069-1.063
			c2.579,0,5.158,0,7.737,0c1.08,0,1.082,0.001,1.082,1.045c0.001,1.789,0,3.579,0,5.368c0,24.421,0.001,48.841-0.002,73.262
			c0,1.355,0.129,1.186-1.171,1.189c-3.368,0.008-6.737-0.014-10.105,0.018c-0.633,0.006-0.898-0.161-1.07-0.8
			c-5.286-19.647-10.594-39.287-15.903-58.928c-0.079-0.292-0.209-0.57-0.316-0.855c0,0.293-0.022,0.589,0.004,0.88
			c0.389,4.372,0.791,8.743,1.171,13.116c0.068,0.785,0.074,1.577,0.074,2.365c0.004,14.368,0.003,28.736,0.003,43.105
			c0,1.102-0.001,1.102-1.104,1.102c-2.632,0-5.264-0.031-7.894,0.019c-0.787,0.015-0.947-0.24-0.946-0.98
			C174.765,97.314,174.759,84.13,174.759,70.946z"/>
		<path class="st1" d="M223.075,71.055c0-13.129,0-26.259,0-39.388c0-1.074,0.001-1.075,1.052-1.075
			c5.815,0,11.631-0.069,17.444,0.038c1.978,0.036,3.993,0.332,5.912,0.823c4.724,1.207,7.619,4.436,9.24,8.921
			c0.933,2.581,1.247,5.261,1.248,7.986c0.003,15.103,0.002,30.205,0.001,45.308c0,2.644-0.289,5.249-1.134,7.77
			c-1.867,5.574-5.718,8.81-11.521,9.675c-1.451,0.216-2.93,0.321-4.397,0.331c-5.604,0.037-11.208,0.015-16.813,0.015
			c-1.03,0-1.032-0.001-1.032-1.016C223.074,97.313,223.075,84.184,223.075,71.055z M233.844,71.108c0,5.208,0,10.416,0,15.624
			c0,4.761,0.002,9.522-0.003,14.283c0,0.445-0.034,0.813,0.626,0.8c2.209-0.044,4.42,0.013,6.627-0.054
			c2.64-0.08,4.534-1.367,5.358-3.889c0.434-1.329,0.722-2.771,0.727-4.163c0.05-15.072,0.051-30.144,0-45.216
			c-0.005-1.392-0.3-2.832-0.73-4.162c-0.724-2.237-2.333-3.647-4.737-3.801c-2.279-0.146-4.571-0.095-6.858-0.121
			c-1.009-0.011-1.01-0.001-1.01,1.029C233.844,51.328,233.844,61.218,233.844,71.108z"/>
		<path class="st1" d="M43.39,71.027c0-13.103-0.001-26.206,0.002-39.308c0-1.283-0.105-1.123,1.157-1.124
			c5.499-0.005,10.998-0.021,16.497,0.006c2.708,0.013,5.338,0.49,7.815,1.635c4.387,2.028,6.775,5.64,7.801,10.196
			c0.435,1.933,0.62,3.948,0.678,5.934c0.105,3.575,0.075,7.156,0.019,10.734c-0.076,4.792-2.023,8.628-6.032,11.352
			c-0.185,0.126-0.68,0.24-0.099,0.529c3.344,1.665,4.815,4.662,5.593,8.073c0.342,1.5,0.519,3.069,0.527,4.608
			c0.048,8.919,0.024,17.839,0.023,26.758c0,1.038-0.002,1.039-1.005,1.039c-2.868,0.001-5.736,0-8.604,0
			c-1.118,0-1.119-0.001-1.119-1.091c-0.001-8.683,0.029-17.365-0.029-26.047c-0.01-1.451-0.226-2.95-0.645-4.337
			c-0.781-2.584-2.628-4.003-5.373-4.077c-1.945-0.053-3.893-0.019-5.84-0.037c-0.437-0.004-0.631,0.166-0.598,0.608
			c0.018,0.235,0.002,0.473,0.002,0.71c0,11.077,0,22.154,0,33.23c0,1.039-0.002,1.041-1.004,1.041c-2.92,0.001-5.841,0.001-8.761,0
			c-1.002,0-1.003-0.002-1.003-1.044C43.39,97.285,43.39,84.156,43.39,71.027z M54.16,53.684c0,4.155,0.009,8.31-0.011,12.465
			c-0.003,0.566,0.128,0.785,0.742,0.772c1.866-0.039,3.735,0.023,5.601-0.024c2.459-0.062,4.322-1.164,5.24-3.485
			c0.447-1.129,0.789-2.375,0.825-3.578c0.116-3.836,0.105-7.677,0.056-11.515c-0.015-1.141-0.203-2.311-0.511-3.412
			c-0.814-2.918-2.726-4.375-5.745-4.466c-1.76-0.053-3.524,0.005-5.284-0.051c-0.71-0.022-0.937,0.168-0.93,0.908
			C54.178,45.427,54.159,49.556,54.16,53.684z"/>
		<path class="st1" d="M419.654,71.029c0-13.129,0-26.258,0-39.387c0-1.049,0.002-1.049,1.077-1.049
			c5.525,0,11.051-0.018,16.576,0.008c2.708,0.013,5.338,0.49,7.816,1.635c4.387,2.027,6.775,5.639,7.802,10.195
			c0.436,1.933,0.62,3.948,0.679,5.934c0.105,3.575,0.075,7.156,0.019,10.734c-0.076,4.792-2.022,8.629-6.031,11.353
			c-0.181,0.123-0.687,0.238-0.103,0.529c3.344,1.665,4.816,4.662,5.594,8.073c0.342,1.5,0.519,3.069,0.527,4.608
			c0.048,8.893,0.024,17.786,0.023,26.679c0,1.119-0.001,1.12-1.083,1.12c-2.815,0-5.631,0.008-8.446-0.003
			c-1.248-0.005-1.199,0.228-1.199-1.165c-0.002-8.656,0.028-17.313-0.03-25.969c-0.01-1.451-0.225-2.95-0.644-4.337
			c-0.78-2.584-2.626-4.004-5.372-4.079c-1.945-0.053-3.893-0.019-5.84-0.037c-0.435-0.004-0.634,0.163-0.599,0.606
			c0.018,0.235,0.002,0.473,0.002,0.71c0,11.051,0,22.101,0,33.152c0,1.121-0.001,1.122-1.081,1.122
			c-2.868,0-5.736,0.004-8.604-0.002c-1.184-0.002-1.082,0.134-1.083-1.12C419.653,97.234,419.654,84.131,419.654,71.029z
			 M430.423,53.676c0,4.155,0.009,8.31-0.01,12.465c-0.002,0.555,0.109,0.794,0.733,0.781c1.866-0.04,3.735,0.022,5.601-0.024
			c2.458-0.06,4.324-1.158,5.245-3.478c0.448-1.129,0.791-2.374,0.828-3.577c0.116-3.836,0.108-7.677,0.056-11.515
			c-0.016-1.167-0.208-2.364-0.528-3.489c-0.814-2.865-2.734-4.307-5.72-4.397c-1.708-0.052-3.418-0.029-5.127-0.035
			c-1.077-0.004-1.078,0-1.078,1.041C430.422,45.524,430.423,49.6,430.423,53.676z"/>
		<path class="st1" d="M120.919,70.946c0,8.157,0.003,16.315-0.002,24.472c-0.001,2.277-0.3,4.514-1.049,6.671
			c-1.707,4.916-5.133,8.066-10.085,9.5c-4.076,1.181-8.219,1.182-12.315,0.075c-6.235-1.684-10.339-6.468-11.137-12.907
			c-0.168-1.353-0.257-2.725-0.259-4.088c-0.017-16.051-0.039-32.103,0.024-48.154c0.008-1.975,0.286-4.007,0.806-5.912
			c1.445-5.292,4.962-8.71,10.186-10.265c4.173-1.242,8.433-1.267,12.616-0.049c6.226,1.813,9.793,6.077,10.874,12.42
			c0.246,1.443,0.32,2.93,0.326,4.397C120.935,55.052,120.919,62.999,120.919,70.946z M110.158,70.949
			c0-7.944,0.012-15.888-0.015-23.831c-0.003-0.991-0.12-2.001-0.337-2.968c-0.683-3.044-3.031-4.933-6.072-4.977
			c-3.36-0.049-5.735,1.66-6.494,4.825c-0.291,1.215-0.428,2.495-0.431,3.746c-0.028,15.467-0.035,30.934,0.009,46.4
			c0.004,1.478,0.219,3.005,0.633,4.422c0.772,2.641,3.12,4.153,6.04,4.155c2.928,0.002,5.232-1.504,6.042-4.149
			c0.372-1.213,0.59-2.523,0.598-3.79C110.184,86.837,110.158,78.893,110.158,70.949z"/>
		<path class="st1" d="M366.288,70.959c0,8.157,0.003,16.315-0.002,24.472c-0.002,2.277-0.304,4.513-1.053,6.67
			c-1.698,4.886-5.103,8.028-10.017,9.47c-4.098,1.203-8.268,1.206-12.391,0.088c-6.235-1.69-10.332-6.474-11.126-12.916
			c-0.167-1.353-0.256-2.725-0.257-4.088c-0.017-16.051-0.016-32.103-0.006-48.154c0.002-2.759,0.419-5.457,1.552-7.997
			c1.876-4.204,5.11-6.899,9.482-8.172c4.181-1.218,8.436-1.26,12.617-0.039c6.225,1.818,9.787,6.085,10.862,12.43
			c0.245,1.443,0.319,2.93,0.325,4.397C366.304,55.066,366.288,63.012,366.288,70.959z M355.527,71.027
			c0-7.97,0.012-15.94-0.015-23.91c-0.003-0.991-0.121-2.001-0.338-2.968c-0.683-3.043-3.032-4.932-6.073-4.976
			c-3.36-0.049-5.734,1.661-6.492,4.827c-0.291,1.215-0.428,2.495-0.43,3.746c-0.028,15.467-0.035,30.934,0.009,46.4
			c0.004,1.478,0.219,3.005,0.634,4.422c0.773,2.64,3.12,4.152,6.041,4.153c2.927,0.002,5.231-1.505,6.041-4.151
			c0.371-1.213,0.589-2.523,0.598-3.79C355.553,86.862,355.527,78.944,355.527,71.027z"/>
		<path class="st1" d="M409.709,70.987c0,8.157,0.003,16.315-0.002,24.472c-0.001,2.25-0.299,4.463-1.035,6.595
			c-1.696,4.917-5.112,8.085-10.063,9.524c-4.209,1.223-8.495,1.248-12.692-0.017c-6.314-1.903-9.807-6.32-10.786-12.767
			c-0.204-1.345-0.267-2.724-0.268-4.087c-0.018-16.051-0.039-32.103,0.023-48.154c0.008-1.976,0.279-4.007,0.795-5.914
			c1.434-5.293,4.939-8.725,10.161-10.29c4.171-1.25,8.43-1.277,12.615-0.069c6.232,1.798,9.808,6.052,10.906,12.392
			c0.25,1.442,0.325,2.93,0.331,4.397C409.725,55.041,409.709,63.014,409.709,70.987z M398.948,70.921
			c0-7.918,0.011-15.835-0.014-23.753c-0.003-0.991-0.117-2-0.328-2.969c-0.67-3.081-3.033-4.99-6.111-5.027
			c-3.355-0.04-5.714,1.676-6.472,4.853c-0.284,1.19-0.421,2.443-0.423,3.668c-0.028,15.493-0.038,30.986,0.013,46.479
			c0.005,1.551,0.255,3.163,0.731,4.637c0.84,2.599,3.19,3.962,6.203,3.91c2.707-0.046,4.991-1.587,5.761-4.101
			c0.379-1.238,0.605-2.573,0.613-3.867C398.975,86.809,398.948,78.865,398.948,70.921z"/>
		<path class="st1" d="M130.115,64.299c0-10.866,0-21.733,0-32.599c0-1.107,0.002-1.108,1.103-1.108c2.894,0,5.788,0,8.682,0
			c1.007,0,1.009,0.001,1.009,1.043c0.001,20.864,0,41.729,0.003,62.593c0,0.657,0.003,1.318,0.068,1.97
			c0.171,1.697,0.53,3.345,1.746,4.638c1.796,1.91,4.048,2.232,6.464,1.634c2.404-0.596,3.694-2.32,4.198-4.646
			c0.221-1.019,0.333-2.083,0.334-3.127c0.019-20.97,0.013-41.939,0.017-62.909c0-1.379-0.181-1.189,1.229-1.194
			c2.894-0.01,5.788,0.013,8.682-0.016c0.621-0.006,0.862,0.113,0.861,0.807c-0.019,21.469,0.007,42.939-0.053,64.408
			c-0.005,1.945-0.329,3.95-0.867,5.822c-1.527,5.309-5.104,8.674-10.42,10.093c-3.881,1.036-7.828,1.05-11.705-0.004
			c-6.184-1.682-9.752-5.844-10.913-12.078c-0.297-1.593-0.415-3.239-0.421-4.861C130.097,84.611,130.115,74.455,130.115,64.299z"/>
		<path class="st1" d="M0.01,70.991c0-8.21-0.011-16.419,0.007-24.629c0.006-2.433,0.344-4.826,1.198-7.12
			c1.684-4.522,4.847-7.525,9.455-8.898c4.096-1.22,8.27-1.256,12.385-0.113c6.024,1.673,9.382,5.831,10.517,11.855
			c0.3,1.592,0.386,3.238,0.425,4.862c0.066,2.788,0.008,5.578,0.026,8.367c0.003,0.529-0.138,0.738-0.708,0.733
			c-3.131-0.024-6.263-0.029-9.394,0.003c-0.66,0.007-0.708-0.3-0.708-0.813c-0.002-3.104,0.012-6.21-0.061-9.313
			c-0.021-0.906-0.225-1.831-0.489-2.704c-0.802-2.65-2.706-4.031-5.446-4.049c-2.943-0.02-5.086,1.342-5.826,3.998
			c-0.418,1.499-0.622,3.105-0.626,4.664c-0.044,15.393-0.043,30.786-0.002,46.179c0.004,1.534,0.198,3.11,0.59,4.591
			c0.678,2.562,2.702,3.934,5.417,3.958c2.959,0.026,5.069-1.291,5.843-3.86c0.367-1.216,0.562-2.526,0.579-3.796
			c0.065-4.867,0.012-9.736,0.042-14.603c0.004-0.734-0.224-0.936-0.939-0.912c-1.551,0.052-3.105-0.002-4.657,0.026
			c-0.526,0.009-0.75-0.125-0.745-0.696c0.023-2.657,0.017-5.315,0.004-7.973c-0.002-0.484,0.121-0.694,0.667-0.692
			c5.262,0.019,10.525,0.022,15.787-0.002c0.627-0.003,0.668,0.295,0.666,0.773c-0.011,2.368-0.005,4.736-0.005,7.105
			c0,10.815,0,21.629,0,32.444c0,1.083-0.002,1.083-1.048,1.084c-1.289,0.001-2.579-0.02-3.868,0.01
			c-0.478,0.011-0.704-0.156-0.848-0.605c-0.362-1.125-0.772-2.236-1.162-3.352c-0.112-0.32-0.194-0.562-0.512-0.108
			c-2.089,2.976-5.083,4.407-8.585,4.867c-2.823,0.371-5.626,0.166-8.336-0.751c-5.137-1.738-7.905-5.553-9.028-10.663
			c-0.387-1.758-0.578-3.593-0.591-5.394C-0.025,87.306,0.01,79.148,0.01,70.991z"/>
		<path class="st1" d="M267.917,71.017c0-13.105,0-26.209,0-39.314c0-1.11,0.001-1.111,1.095-1.111c8.184,0,16.368,0,24.552,0
			c1.039,0,1.04,0.001,1.04,1.074c0,2.631-0.028,5.263,0.018,7.894c0.013,0.723-0.222,0.864-0.892,0.86
			c-4.736-0.027-9.473-0.003-14.21-0.028c-0.645-0.003-0.85,0.158-0.848,0.828c0.022,8.131,0.022,16.262,0,24.394
			c-0.002,0.66,0.188,0.839,0.841,0.835c4.131-0.028,8.263-0.001,12.394-0.028c0.651-0.004,0.853,0.172,0.845,0.834
			c-0.034,2.789-0.031,5.579-0.002,8.368c0.006,0.62-0.178,0.801-0.801,0.797c-4.105-0.026-8.21,0.006-12.315-0.031
			c-0.755-0.007-0.968,0.184-0.967,0.954c0.026,10.999,0.018,21.999,0.017,32.998c0,1.117-0.001,1.118-1.085,1.118
			c-2.842,0-5.684,0.005-8.526-0.002c-1.261-0.003-1.156,0.159-1.156-1.125C267.916,97.226,267.917,84.122,267.917,71.017z"/>
		<path class="st1" d="M300.759,70.989c0-13.103,0-26.205,0-39.308c0-1.089,0.001-1.089,1.116-1.089c2.92,0,5.841,0.027,8.761-0.019
			c0.755-0.012,0.905,0.243,0.904,0.936c-0.018,12.708-0.013,25.416-0.013,38.124c0,10.393,0.008,20.785-0.017,31.178
			c-0.002,0.777,0.168,1.02,0.989,1.013c4.709-0.043,9.419-0.008,14.128-0.036c0.661-0.004,0.84,0.185,0.832,0.838
			c-0.035,2.71-0.028,5.42-0.004,8.13c0.005,0.55-0.158,0.715-0.711,0.714c-8.419-0.016-16.839-0.021-25.258,0.006
			c-0.802,0.003-0.731-0.427-0.731-0.942C300.76,97.352,300.759,84.171,300.759,70.989z"/>
	</g>
</g>
</svg>
