<svg id="icons" xmlns="http://www.w3.org/2000/svg" width="48" height="48" viewBox="0 0 48 48">
  <defs>
    <style>
      .cls-1 {
        fill: #d9725c;
      }
    </style>
  </defs>
  <title>inclusion-fuels-innovation-icon-03</title>
  <path class="cls-1" d="M43.059,10.7,25.918.885a3.871,3.871,0,0,0-3.836,0L4.941,10.7A3.871,3.871,0,0,0,3,14.051v19.9A3.869,3.869,0,0,0,4.941,37.3l17.141,9.816a3.868,3.868,0,0,0,3.836,0L43.058,37.3A3.868,3.868,0,0,0,45,33.95v-19.9A3.871,3.871,0,0,0,43.059,10.7ZM24,22.843,8.762,14H39.238Zm-1,1.732V42.326L7.605,15.641Zm2,0,15.394-8.934L25,42.326ZM23.076,2.62a1.865,1.865,0,0,1,1.848,0L41.3,12H6.7ZM5.935,35.563A1.862,1.862,0,0,1,5,33.95V15.127l17.146,29.72Zm36.129,0-16.21,9.284L43,15.126V33.95A1.861,1.861,0,0,1,42.064,35.563Z"/>
</svg>
