<?xml version="1.0" encoding="utf-8"?>
<!-- Generator: Adobe Illustrator 23.0.0, SVG Export Plug-In . SVG Version: 6.00 Build 0)  -->
<svg version="1.1" id="Layer_1" xmlns="http://www.w3.org/2000/svg" xmlns:xlink="http://www.w3.org/1999/xlink" x="0px" y="0px"
	 viewBox="0 0 1000 111.967" style="enable-background:new 0 0 1000 111.967;" xml:space="preserve">
<style type="text/css">
	.st0{fill:#F18443;}
	.st1{fill:#74CFF2;}
	.st2{fill:#40BE82;}
	.st3{fill:#999999;}
	.st4{opacity:0.25;fill:#F18443;}
	.st5{opacity:0.25;fill:#74CFF2;}
	.st6{opacity:0.25;fill:#40BE82;}
</style>
<g>
	<path class="st0" d="M153.273,13.817h13.016v62.43h30.474v10.951h-43.49V13.817z"/>
	<path class="st0" d="M214.443,13.817h13.016v73.381h-13.016V13.817z"/>
	<path class="st0" d="M339.413,13.817h44.163v10.951h-31.147v18.805h26.39v10.951h-26.39v21.723h32.269v10.951h-45.285V13.817z"/>
	<path class="st1" d="M426.342,50.754c0-24.011,15.214-38.284,34.738-38.284c10.412,0,17.549,4.578,22.171,9.29l-6.956,8.394
		c-3.68-3.591-7.989-6.374-14.811-6.374c-13.016,0-21.768,10.099-21.768,26.57c0,16.74,7.764,26.883,22.486,26.883
		c4.084,0,8.123-1.167,10.457-3.231V58.159h-13.824V47.477h25.493v32.359c-4.892,4.937-13.375,8.707-23.428,8.707
		C441.107,88.544,426.342,75.035,426.342,50.754z"/>
	<path class="st1" d="M506.343,13.817h13.016v73.381h-13.016V13.817z"/>
	<path class="st1" d="M623.783,13.817h44.163v10.951h-31.147v18.805h26.39v10.951h-26.39v21.723h32.269v10.951h-45.285V13.817z"/>
	<path class="st2" d="M710.17,79.141l7.585-8.931c5.251,5.004,12.297,8.37,19.12,8.37c8.258,0,12.791-3.748,12.791-9.47
		c0-6.036-4.735-7.966-11.4-10.794l-10.031-4.353c-7.226-3.008-14.833-8.729-14.833-19.456c0-11.692,10.323-20.69,24.641-20.69
		c8.573,0,16.875,3.545,22.62,9.358l-6.688,8.258c-4.668-3.972-9.649-6.306-15.932-6.306c-6.957,0-11.49,3.254-11.49,8.617
		c0,5.768,5.588,7.899,11.67,10.39l9.896,4.151c8.729,3.635,14.833,9.156,14.833,19.792c0,11.894-9.874,21.813-26.346,21.813
		C726.686,89.89,717.127,85.986,710.17,79.141z"/>
	<path class="st2" d="M928.366,13.817h44.163v10.951h-31.148v18.805h26.39v10.951h-26.39v21.723h32.269v10.951h-45.285V13.817z"/>
	<polygon class="st0" points="329.776,13.818 294.535,74.008 286.929,87.004 279.323,74.008 244.082,13.818 259.294,13.818 
		286.929,61.021 314.564,13.818 	"/>
	<polygon class="st1" points="615.782,13.818 580.541,74.008 572.935,87.004 565.329,74.008 530.088,13.818 545.3,13.818 
		572.935,61.021 600.57,13.818 	"/>
	<polygon class="st2" points="920.084,13.914 884.843,74.104 877.237,87.1 869.631,74.104 834.39,13.914 849.602,13.914 
		877.237,61.117 904.872,13.914 	"/>
	<path class="st2" d="M817.483,26.91l-7.606-12.996L802.27,26.91l-35.241,60.19h15.213l9.953-17.003h35.363l9.953,17.003h15.213
		L817.483,26.91z M798.55,59.239l11.327-19.342l11.327,19.342H798.55z"/>
	<circle class="st3" cx="407.093" cy="79.888" r="8.656"/>
	<circle class="st3" cx="689.619" cy="79.884" r="8.656"/>
	<circle class="st3" cx="991.344" cy="79.888" r="8.656"/>
	<g>
		<path class="st3" d="M983.966,21.629c0-4.562,3.379-7.785,7.521-7.785c4.142,0,7.52,3.223,7.52,7.785s-3.379,7.754-7.52,7.754
			C987.344,29.384,983.966,26.192,983.966,21.629z M997.169,21.629c0-3.644-2.413-6.119-5.683-6.119
			c-3.27,0-5.683,2.476-5.683,6.119s2.413,6.088,5.683,6.088C994.756,27.718,997.169,25.273,997.169,21.629z M988.496,17.659h3.223
			c1.713,0,3.099,0.732,3.099,2.538c0,0.919-0.514,1.759-1.417,2.133l1.713,3.099h-2.071l-1.277-2.523h-1.339v2.523h-1.931V17.659z
			 M991.315,21.497c0.919,0,1.448-0.459,1.448-1.176c0-0.677-0.42-1.16-1.386-1.16h-0.95v2.336H991.315z"/>
	</g>
	<polygon class="st0" points="32.375,56.074 64.749,0 0,0 	"/>
	<polygon class="st1" points="97.124,56.074 129.498,0 64.749,0 	"/>
	<polygon class="st2" points="64.749,111.967 97.123,55.893 32.374,55.893 	"/>
	<polygon class="st4" points="259.294,13.818 314.564,13.818 286.929,61.021 	"/>
	<polygon class="st5" points="545.3,13.818 600.57,13.818 572.935,61.021 	"/>
	<polygon class="st6" points="849.602,13.817 904.872,13.817 877.237,61.019 	"/>
</g>
</svg>
