<svg id="Layer_1" data-name="Layer 1" xmlns="http://www.w3.org/2000/svg" width="263" height="48" viewBox="0 0 263 48">
  <defs>
    <style>
      .cls-1 {
        fill: #00a5fa;
      }

      .cls-2 {
        fill: #001f4e;
      }

      .cls-3 {
        fill: #797979;
      }
    </style>
  </defs>
  <title>logo-loanwell-color</title>
  <g>
    <polygon class="cls-1" points="31.421 47.566 0 47.566 0 16.145 31.421 16.145 22.877 32.682 31.421 47.566"/>
    <rect class="cls-2" x="15.711" y="0.434" width="31.421" height="31.421"/>
    <polygon class="cls-3" points="15.711 31.855 31.421 47.566 31.421 31.855 15.711 31.855"/>
    <g>
      <path class="cls-1" d="M56.007,44.258V5.175h7.607V36.982h17.42v7.276Z"/>
      <path class="cls-1" d="M109.368,30.7c0,8.324-6.119,14.387-14.222,14.387S80.923,39.022,80.923,30.7c0-8.379,6.119-14.388,14.223-14.388S109.368,22.319,109.368,30.7Zm-7.332,0c0-5.127-3.307-7.717-6.89-7.717s-6.891,2.59-6.891,7.717c0,5.071,3.308,7.717,6.891,7.717S102.036,35.824,102.036,30.7Z"/>
      <path class="cls-1" d="M118.188,28.658l6.67-.992c1.543-.22,2.04-.992,2.04-1.929,0-1.93-1.489-3.528-4.576-3.528a4.813,4.813,0,0,0-5.181,4.41l-6.505-1.378c.441-4.245,4.355-8.931,11.631-8.931,8.6,0,11.8,4.851,11.8,10.309v13.34a30.428,30.428,0,0,0,.33,4.3h-6.725a18.4,18.4,0,0,1-.275-3.252A9.063,9.063,0,0,1,119.4,45.03c-5.788,0-9.316-3.914-9.316-8.158C110.085,32.021,113.668,29.32,118.188,28.658Zm8.71,4.631V32.076l-6.119.937c-1.874.276-3.363,1.323-3.363,3.418,0,1.6,1.158,3.142,3.528,3.142C124.031,39.573,126.9,38.085,126.9,33.289Z"/>
      <path class="cls-1" d="M144.7,44.258h-7.331V17.137h7.111V20.5a9.01,9.01,0,0,1,7.828-4.079c6.725,0,9.812,4.8,9.812,10.749V44.258H154.79V28.438c0-3.032-1.488-5.4-5.016-5.4-3.2,0-5.072,2.48-5.072,5.622Z"/>
      <path class="cls-1" d="M210.466,5.175h7.773L207.434,44.258h-7.827l-8.93-27.837-8.931,27.837h-7.937L162.949,5.175H171l7.167,26.9,8.654-26.9H194.7l8.709,27.011Z"/>
      <path class="cls-1" d="M241.391,36.486c-1.378,4.686-5.677,8.6-12.348,8.6-7.441,0-14-5.347-14-14.5,0-8.655,6.394-14.278,13.34-14.278,8.379,0,13.395,5.348,13.395,14.057,0,1.048-.11,2.15-.11,2.26h-19.4A6.606,6.606,0,0,0,229.1,38.8a5.99,5.99,0,0,0,6.174-4.134Zm-6.835-8.875c-.11-2.7-1.874-5.347-6.064-5.347a5.867,5.867,0,0,0-6.063,5.347Z"/>
      <path class="cls-1" d="M244.2,44.258V4.348h7.331v39.91Z"/>
      <path class="cls-1" d="M255.668,44.258V4.348H263v39.91Z"/>
    </g>
  </g>
</svg>
