<svg xmlns="http://www.w3.org/2000/svg" width="218.952" height="45" viewBox="0 0 218.952 45">
  <defs>
    <style>
      .cls-1 {
        fill: #4263eb;
      }
    </style>
  </defs>
  <title>logo-partner-middesk</title>
  <g id="Layer_2" data-name="Layer 2">
    <g id="Layer_1-2" data-name="Layer 1">
      <path class="cls-1" d="M70.452,35.61l7.665-22.259H78.3V35.61h7.16V6.7H74.445L68.938,24H68.8L63.155,6.7H52.232V35.61h6.609V13.351h.183L66.735,35.61ZM88.678,12.3h7.068V6.7H88.678Zm.23,2.937V35.61h6.654V15.233Zm25.6,10.6c0,3.259-2.111,5.37-4.865,5.37-3.166,0-4.956-2.478-4.956-5.783s1.79-5.782,4.956-5.782c2.754,0,4.865,2.111,4.865,5.369Zm-.137,9.776h6.654V6.7h-6.654V19a7.014,7.014,0,0,0-6.839-4.314c-6.012,0-9.546,4.773-9.546,10.739,0,6.013,3.534,10.74,9.546,10.74a7.014,7.014,0,0,0,6.839-4.314ZM140,25.834c0,3.259-2.111,5.37-4.865,5.37-3.167,0-4.957-2.478-4.957-5.783s1.79-5.782,4.957-5.782c2.754,0,4.865,2.111,4.865,5.369Zm-.138,9.776H147.8V6.7h-7.935V19a7.012,7.012,0,0,0-6.838-4.314c-6.012,0-9.546,4.773-9.546,10.739,0,6.013,3.534,10.74,9.546,10.74a7.012,7.012,0,0,0,6.838-4.314Zm26.124-6.976a5.124,5.124,0,0,1-9.638-2.157h14.87V24.825c0-5.462-3.442-10.143-10.326-10.143a10.769,10.769,0,0,0-11.107,11.061c0,6.241,4.636,10.418,11.244,10.418,5.095,0,8.72-1.974,10.1-5.967Zm-9.5-5.278c.367-2.249,1.79-4.084,4.406-4.084a4.041,4.041,0,0,1,4.222,4.084Zm16.7,8.307c2.065,2.983,6.7,4.5,10.922,4.5,5.83,0,9.547-2.662,9.547-6.839,0-3.442-2.708-5.186-6.2-5.966L182,22.163c-1.148-.23-1.745-.734-1.745-1.469,0-1.1,1.333-1.606,2.754-1.606a7.989,7.989,0,0,1,6.15,2.432l3.672-2.8c-2.11-2.524-5.14-4.039-9.822-4.039-5.323,0-8.857,2.8-8.857,6.517,0,3.626,2.708,5.553,6.793,6.379l4.268.826c1.377.276,2.34.643,2.34,1.7,0,1.147-1.376,1.652-3.442,1.652-2.523,0-5.462-1.056-6.747-3.029Zm29.191-1.836,2.892-2.708,6.2,8.491h7.48l-9.04-12.437,8.719-7.94H211.38l-9,8.582V6.7H195.73V35.61h6.654ZM13.393,6.7h18.75V35.625H45.536V0H13.393ZM32.143,38.3H13.393V9.375H0V45H32.143Z"/>
    </g>
  </g>
</svg>
