<svg xmlns="http://www.w3.org/2000/svg" xmlns:xlink="http://www.w3.org/1999/xlink" width="119.435" height="45" viewBox="0 0 119.435 45">
  <defs>
    <style>
      .cls-1 {
        fill: #fff;
      }

      .cls-1, .cls-2 {
        fill-rule: evenodd;
      }

      .cls-2 {
        fill: #111;
      }

      .cls-3 {
        mask: url(#mask);
      }
    </style>
    <mask id="mask" x="0" y="0" width="119.436" height="45" maskUnits="userSpaceOnUse">
      <g id="b">
        <path id="a" class="cls-1" d="M0,45H119.436V0H0Z"/>
      </g>
    </mask>
  </defs>
  <title>logo-partner-plaid</title>
  <g id="Layer_2" data-name="Layer 2">
    <g id="Layer_1-2" data-name="Layer 1">
      <g>
        <path class="cls-2" d="M62.8,15.421q-1.5-1.264-5.131-1.264H52.21V31.018h4.08V25.734h1.827q3.327,0,4.88-1.466A5.716,5.716,0,0,0,64.75,19.9,5.542,5.542,0,0,0,62.8,15.421m-4.781,6.5H56.29V17.972h1.55q2.83,0,2.83,1.985,0,1.959-2.654,1.961m13.715-7.762H67.477V31.017h9.185V27.2H71.731Zm13.266,0L78.314,31.017h4.58l.876-2.451h5.807l.8,2.451H95.01L88.374,14.156Zm-.05,11L86.7,19.389l1.726,5.764H84.947Z"/>
        <g class="cls-3">
          <path class="cls-2" d="M97.135,31.017h4.255V14.156H97.135Zm20.775-13.7a6.992,6.992,0,0,0-2.028-1.946,9.807,9.807,0,0,0-5.256-1.213H105.02v16.86h6.557a7.4,7.4,0,0,0,5.707-2.325,8.72,8.72,0,0,0,2.151-6.169,8.766,8.766,0,0,0-1.526-5.207M111.1,27.2h-1.826V17.973h1.852a3.754,3.754,0,0,1,3,1.22,5.135,5.135,0,0,1,1.052,3.457q0,4.551-4.081,4.55M17.666,0,3.877,3.612.077,17.478l4.753,4.88L0,27.158,3.576,41.085l13.73,3.836,4.83-4.8L26.889,45l13.789-3.612,3.8-13.867-4.752-4.878,4.829-4.8L40.979,3.915,27.248.079l-4.829,4.8ZM9.2,6.279l7.264-1.9,3.176,3.26-4.632,4.6ZM25.15,7.68l3.228-3.207L35.61,6.494l-5.9,5.865ZM4.429,16.34l2-7.3L12.236,15,7.6,19.6,4.429,16.339Zm28.007-1.178,5.9-5.867,1.883,7.337L36.995,19.84Zm-14.694-.121,4.632-4.6,4.557,4.679L22.3,19.72ZM10.335,22.4l4.632-4.6,4.559,4.679-4.633,4.6Zm14.7.12,4.632-4.6L34.219,22.6l-4.632,4.6Zm-20.7,5.846,3.229-3.209,4.556,4.68L6.216,35.7Zm13.291,1.515,4.632-4.6,4.558,4.679-4.632,4.6ZM32.317,30l4.632-4.6,3.177,3.26-2,7.3Zm-23.372,8.5,5.9-5.867,4.56,4.679-3.229,3.209L8.945,38.506Zm15.966-1.143,4.631-4.6,5.807,5.961-7.263,1.9Z"/>
        </g>
      </g>
    </g>
  </g>
</svg>
