<svg id="Layer_1" data-name="Layer 1" xmlns="http://www.w3.org/2000/svg" width="263" height="90" viewBox="0 0 263 90">
  <defs>
    <style>
      .cls-1 {
        fill: #5b5b5b;
      }

      .cls-1, .cls-2 {
        fill-rule: evenodd;
      }

      .cls-2 {
        fill: #2a97d4;
      }
    </style>
  </defs>
  <title>logo-foreup</title>
  <g id="Page-1">
    <g id="Logo">
      <path id="Combined-Shape" class="cls-1" d="M6.081,72.165V35.772H0V27.293H6.081V25.356c0-5.8,1.568-11.61,5.438-15.293a17.145,17.145,0,0,1,11.7-4.33A21.925,21.925,0,0,1,30.5,6.84l-.829,8.752a13.191,13.191,0,0,0-4.791-.829c-5.62,0-7.558,4.7-7.558,10.228v2.3h9.86v8.479H17.413V72.165Zm33.663-22.39c0,8.66,4.239,15.2,11.149,15.2,6.45,0,10.963-6.359,10.963-15.389,0-7-3.132-15.02-10.872-15.02-8.018.005-11.24,7.745-11.24,15.207Zm33.813-.461c0,16.492-11.61,23.863-23.033,23.863-12.718,0-22.481-8.752-22.481-23.129,0-14.741,9.672-23.771,23.219-23.771,13.361,0,22.3,9.4,22.3,23.037Zm3.788-7.553c0-6.081-.091-10.411-.369-14.468h9.859l.37,8.57h.369c2.21-6.359,7.462-9.582,12.252-9.582a11.728,11.728,0,0,1,2.672.278v10.69a15.816,15.816,0,0,0-3.319-.37c-5.438,0-9.121,3.5-10.138,8.57a19.639,19.639,0,0,0-.369,3.5V72.17H77.34l0-30.409Zm56.787,3.223c.091-4.148-1.75-10.963-9.308-10.963-7,0-9.951,6.359-10.411,10.963Zm-19.719,7.922c.278,8.109,6.632,11.61,13.821,11.61a33.723,33.723,0,0,0,12.439-2.028l1.659,7.831a42.216,42.216,0,0,1-15.662,2.762c-14.559,0-23.129-8.939-23.129-22.668,0-12.44,7.558-24.141,21.93-24.141,14.559,0,19.35,11.979,19.35,21.839a27.578,27.578,0,0,1-.369,4.791H114.413Z"/>
      <path class="cls-2" d="M223.766,27.389h0c0,3.059.014,6.117-.009,9.18,0,.534.155.711.7.707,4.841-.046,9.686.146,14.514-.365a11.23,11.23,0,0,0,5.675-1.9,9.117,9.117,0,0,0,3.8-7.876,9.134,9.134,0,0,0-7.526-9.021,58.8,58.8,0,0,0-8.669-.552c-2.585-.095-5.179,0-7.768-.032-.574,0-.738.183-.734.743.023,3.041.014,6.081.014,9.117Zm-29.683,53.2c.948-.533,1.905-1.057,2.848-1.6a38.8,38.8,0,0,0,8.657-6.345,34.661,34.661,0,0,0,3.651-4.381,6.534,6.534,0,0,0,1.194-3.806c0-3.059.018-6.122.164-9.176a47.156,47.156,0,0,0-.127-7.986c-.557-4.522-.183-9.03-.269-13.543-.183-9.33-.1-28-.1-28s8.287-.009,9.855-.009c3.925,0,7.845-.014,11.769,0,2.507.009,5.024,0,7.526.119a52.107,52.107,0,0,1,9.4.907,17.508,17.508,0,0,1,7.849,4.193,19.5,19.5,0,0,1,6.318,13.024,27.215,27.215,0,0,1-.593,9.75,19.179,19.179,0,0,1-9.367,12.271,22.153,22.153,0,0,1-8.775,2.616c-6.395.693-12.808.387-19.217.46-1.185.014-1.09-.123-1.09,1.062V74.453c0,.885,0,.885-.87.885-4.158,0-8.319-.01-12.476.013-.566,0-.8-.137-.835-.738-.068-1.222-.779-1.609-1.891-1.081a13.666,13.666,0,0,0-2.061,1.359,40.047,40.047,0,0,1-10.926,5.657c-.182.059-.374.105-.56.159l-.073-.114ZM206.818,5.755s.014,26.712.019,40.068a.827.827,0,0,1-.041.4,4.3,4.3,0,0,0-.443,2.507c-.05,2.922-.059,5.844-.173,8.761a18.335,18.335,0,0,1-.282,3.861c-.47,1.841-1.154,2.466-3.054,2.566-3.013.16-6.026.315-9.021.693-2.7.342-5.384.816-8.055,1.354a21.028,21.028,0,0,0-4.522,1.253,7.235,7.235,0,0,0-1.96,1.281,4.43,4.43,0,0,0-1.527,3.2,12.528,12.528,0,0,0,2.845,9.03,7.1,7.1,0,0,0,5.743,2.475,12.029,12.029,0,0,0,4.545-1.053,4.184,4.184,0,0,1-1.673,1.176c-3.729,1.582-7.2,1.222-10.311-1.472-1.29-1.117-2.53-2.288-3.82-3.405a15.924,15.924,0,0,0-6.851-3.355,18.73,18.73,0,0,1-7.325-3.355A20.166,20.166,0,0,1,153,58.755a71.674,71.674,0,0,1-.848-8.885c-.26-7.334-.064-14.668-.1-22-.037-7.024,0-14.044,0-21.068,0-1.058,0-1.058,1.057-1.058h12.125c.853,0,.862.009.862.844,0,13.711-.014,27.422.027,41.133a39.049,39.049,0,0,0,.447,7.034,10.776,10.776,0,0,0,7.316,8.7,18.433,18.433,0,0,0,12.417.054,9.431,9.431,0,0,0,6.582-8.323,77.915,77.915,0,0,0,.483-9.563q-.007-19.481,0-38.96c0-.921,0-.921.9-.921,1.254,0,2.512-.041,3.766.009,3.136.128,8.783,0,8.783,0Zm-22.531,73.89A149.9,149.9,0,0,0,204.544,69.3a4.765,4.765,0,0,1-1.172,1.751,18.294,18.294,0,0,1-5.018,3.546,65.572,65.572,0,0,1-11.975,4.508c-.656.192-1.322.369-1.983.547-.032.018-.073,0-.109-.009Zm-1.122-3.861a125.765,125.765,0,0,0,18.708-8.952.694.694,0,0,1-.219.638,12.62,12.62,0,0,1-4.326,3.46,53.97,53.97,0,0,1-11.359,4.28c-.916.255-1.837.483-2.753.725l-.051-.151Zm.748-3.706a91.468,91.468,0,0,0,11.97-5.857,1.866,1.866,0,0,1-.533.862,10.39,10.39,0,0,1-3.41,2.361,37.681,37.681,0,0,1-8.027,2.634Z"/>
    </g>
  </g>
</svg>
