<svg xmlns="http://www.w3.org/2000/svg" width="82.601" height="45" viewBox="0 0 82.601 45">
  <defs>
    <style>
      .cls-1 {
        fill: #ff5100;
      }

      .cls-2 {
        fill: #3c3c3b;
      }
    </style>
  </defs>
  <title>logo-partner-currencycloud</title>
  <g id="Layer_2" data-name="Layer 2">
    <g id="Layer_1-2" data-name="Layer 1">
      <g>
        <g>
          <path class="cls-1" d="M30.168,22.234A8.532,8.532,0,0,1,21.636,13.7h-5.17a13.7,13.7,0,0,0,13.7,13.7Z"/>
          <path class="cls-1" d="M66.136,13.7A13.7,13.7,0,0,0,52.433,0V5.171A8.532,8.532,0,0,1,60.965,13.7Z"/>
          <path class="cls-1" d="M43.869,13.7h0A13.7,13.7,0,0,0,30.168,0V5.171A8.532,8.532,0,0,1,38.7,13.7h0a13.7,13.7,0,0,0,13.7,13.7V22.234A8.532,8.532,0,0,1,43.869,13.7Z"/>
        </g>
        <g>
          <g>
            <path class="cls-2" d="M20.106,35.953l-.127,1.8c-1.2,0-2.04.553-2.04,1.371v3.227H15.98V36.068h1.89l.035.761A2.9,2.9,0,0,1,20.106,35.953Z"/>
            <path class="cls-2" d="M24.915,35.953l-.126,1.8c-1.2,0-2.04.553-2.04,1.371v3.227H20.79V36.068h1.89l.034.761A2.9,2.9,0,0,1,24.915,35.953Z"/>
            <path class="cls-2" d="M82.6,42.349H80.723l-.035-.772a2.266,2.266,0,0,1-1.913.888,3.016,3.016,0,0,1-3-3.227,3.059,3.059,0,0,1,3-3.285,2.285,2.285,0,0,1,1.867.841V33.36H82.6ZM80.642,39.2a1.425,1.425,0,1,0-1.417,1.579A1.428,1.428,0,0,0,80.642,39.2Z"/>
            <path class="cls-2" d="M31.311,39.9H27a1.107,1.107,0,0,0,1.21,1.037,1.616,1.616,0,0,0,1.268-.576L31,41.093a3.255,3.255,0,0,1-2.766,1.372,3.256,3.256,0,1,1-.092-6.512,3.01,3.01,0,0,1,3.215,3.158C31.357,39.376,31.334,39.676,31.311,39.9ZM27,38.581h2.3c-.127-.7-.507-1.1-1.164-1.1S27.139,37.878,27,38.581Z"/>
            <path class="cls-2" d="M55.617,37.624a1.584,1.584,0,0,0,0,3.158,1.565,1.565,0,0,0,1.268-.507l1.106,1.3a3.442,3.442,0,0,1-2.455.888,3.261,3.261,0,1,1,.046-6.512,3.574,3.574,0,0,1,2.2.749l-1.107,1.326A1.5,1.5,0,0,0,55.617,37.624Z"/>
            <path class="cls-2" d="M42.446,37.624a1.584,1.584,0,0,0,0,3.158,1.565,1.565,0,0,0,1.268-.507l1.107,1.3a3.442,3.442,0,0,1-2.455.888,3.261,3.261,0,1,1,.046-6.512,3.573,3.573,0,0,1,2.2.749l-1.106,1.326A1.5,1.5,0,0,0,42.446,37.624Z"/>
            <rect class="cls-2" x="58.77" y="33.36" width="1.959" height="8.989"/>
            <path class="cls-2" d="M51.39,41.692C51.39,43.686,49.961,45,47.8,45a3.916,3.916,0,0,1-2.49-.772l.427-1.533a3.2,3.2,0,0,0,2.017.634,1.568,1.568,0,0,0,1.682-1.591,2.341,2.341,0,0,1-1.74.727A2.265,2.265,0,0,1,45.363,40v-3.93h1.959V39.71a1.055,1.055,0,1,0,2.109,0V36.068H51.39Z"/>
            <path class="cls-2" d="M61.441,39.2A3.445,3.445,0,1,1,64.9,42.465,3.173,3.173,0,0,1,61.441,39.2Zm4.851,0a1.42,1.42,0,1,0-1.406,1.579A1.419,1.419,0,0,0,66.292,39.2Z"/>
            <path class="cls-2" d="M75.048,36.068v3.988c0,1.44-1.21,2.409-3.019,2.409a2.733,2.733,0,0,1-3.02-2.755V36.068h1.96V39.71a1.06,1.06,0,1,0,2.12,0V36.068Z"/>
            <path class="cls-2" d="M15.193,36.068v3.988c0,1.44-1.21,2.409-3.019,2.409a2.733,2.733,0,0,1-3.02-2.755V36.068h1.96V39.71a1.06,1.06,0,1,0,2.12,0V36.068Z"/>
            <path class="cls-2" d="M38.257,38.408v3.941H36.3V38.707a1.2,1.2,0,0,0-2.386,0v3.642H31.953V36.068h1.89l.023.7a2.551,2.551,0,0,1,1.936-.818A2.317,2.317,0,0,1,38.257,38.408Z"/>
            <path class="cls-2" d="M7.085,39.233a2.813,2.813,0,0,1-2.35,1.238,2.692,2.692,0,1,1,0-5.381A2.813,2.813,0,0,1,7.12,36.38L8.566,35.1a4.786,4.786,0,0,0-3.831-1.882,4.566,4.566,0,1,0,0,9.125,4.79,4.79,0,0,0,3.814-1.858Z"/>
          </g>
          <g>
            <path class="cls-2" d="M81.153,31.7h-.315v1h-.123v-1H80.4v-.115h.8Z"/>
            <path class="cls-2" d="M82.24,32.7v-.883l0-.037h0a.5.5,0,0,1-.028.063c-.009.016-.018.032-.027.046l-.3.481h-.08l-.316-.481a.445.445,0,0,1-.027-.045.433.433,0,0,1-.03-.064h0l0,.037,0,.028V32.7h-.123V31.589h.126l.351.53c.014.022.026.041.034.055s.015.029.021.042h0c0-.013.012-.027.019-.042s.018-.033.033-.055l.334-.53h.128V32.7Z"/>
          </g>
        </g>
      </g>
    </g>
  </g>
</svg>
