<svg xmlns="http://www.w3.org/2000/svg" width="97.724" height="45" viewBox="0 0 97.724 45">
  <defs>
    <style>
      .cls-1 {
        fill: #1681d8;
      }

      .cls-2 {
        fill: #221f1f;
      }
    </style>
  </defs>
  <title>logo-partner-sift</title>
  <g id="Layer_2" data-name="Layer 2">
    <g id="Layer_1-2" data-name="Layer 1">
      <g id="Layer_2-2" data-name="Layer 2">
        <g id="Layer_1-2-2" data-name="Layer 1-2">
          <circle class="cls-1" cx="60.634" cy="5.359" r="2.65"/>
          <polygon class="cls-2" points="49.899 44.093 55.415 44.093 61.816 13.868 56.299 13.868 49.899 44.093"/>
          <path class="cls-2" d="M90.45,18.313h6.278l1-4.445h-6.28l1.823-8.636H87.778l-1.823,8.509H76.436L77.294,9.9c.381-1.83,1.263-3.918,2.756-4.6a8.839,8.839,0,0,1,3.784-.615L84.827.229A16.079,16.079,0,0,0,82.047,0C76.029,0,73.039,4.181,71.81,9.859l-.889,4.009h-4.7l-1,4.445h4.7l-5.392,25.78h5.494l5.429-25.907h9.491L81.06,36.771c-1.06,5.064.346,7.612,5.388,7.612a13.822,13.822,0,0,0,4.423-.527l.947-4.246a15.88,15.88,0,0,1-2.9.243c-2.564,0-2.71-1.309-2.159-3.9Z"/>
          <path class="cls-1" d="M1.687,23.257a1.687,1.687,0,1,0,1.686,1.686h0A1.686,1.686,0,0,0,1.687,23.257Z"/>
          <path class="cls-1" d="M8.36,23.181a1.858,1.858,0,1,0,1.261,1.764v0A1.834,1.834,0,0,0,8.36,23.181Z"/>
          <circle class="cls-1" cx="13.911" cy="24.943" r="2.038"/>
          <circle class="cls-1" cx="26.085" cy="24.943" r="2.038"/>
          <circle class="cls-1" cx="20.022" cy="24.943" r="2.038"/>
          <path class="cls-1" d="M1.687,20.154A1.335,1.335,0,1,0,.352,18.82h0A1.334,1.334,0,0,0,1.687,20.154Z"/>
          <path class="cls-1" d="M7.8,20.425A1.605,1.605,0,1,0,6.194,18.82h0A1.6,1.6,0,0,0,7.8,20.425Z"/>
          <circle class="cls-1" cx="13.911" cy="18.82" r="2.038"/>
          <circle class="cls-1" cx="20.022" cy="18.82" r="2.038"/>
          <path class="cls-1" d="M26.131,20.858A2.039,2.039,0,1,0,24.1,18.811v.009A2.038,2.038,0,0,0,26.131,20.858Z"/>
          <path class="cls-1" d="M7.8,14.126a1.607,1.607,0,1,0-1.606-1.608v0a1.606,1.606,0,0,0,1.606,1.6Z"/>
          <path class="cls-1" d="M32.308,14.126A1.607,1.607,0,1,0,30.7,12.518v0A1.6,1.6,0,0,0,32.308,14.126Z"/>
          <path class="cls-1" d="M1.637,13.474A.779.779,0,1,0,.859,12.7v0A.775.775,0,0,0,1.637,13.474Z"/>
          <circle class="cls-1" cx="26.135" cy="12.696" r="1.751"/>
          <circle class="cls-1" cx="13.911" cy="12.696" r="1.751"/>
          <circle class="cls-1" cx="20.022" cy="12.696" r="2.038"/>
          <path class="cls-1" d="M7.8,7.351a.779.779,0,1,0-.779-.779.778.778,0,0,0,.779.779Z"/>
          <circle class="cls-1" cx="13.911" cy="6.572" r="1.335"/>
          <circle class="cls-1" cx="20.022" cy="6.572" r="1.687"/>
          <circle class="cls-1" cx="26.135" cy="6.572" r="1.335"/>
          <path class="cls-1" d="M32.247,7.351a.779.779,0,1,0-.779-.779.778.778,0,0,0,.779.779Z"/>
          <path class="cls-1" d="M2.149,29.812a1.337,1.337,0,1,0,.869,1.255h0A1.317,1.317,0,0,0,2.149,29.812Z"/>
          <path class="cls-1" d="M32.811,29.86a1.449,1.449,0,1,0,.94,1.36h0A1.426,1.426,0,0,0,32.811,29.86Z"/>
          <path class="cls-1" d="M26.776,29.129a2.043,2.043,0,1,0,1.387,1.938h0A2.017,2.017,0,0,0,26.776,29.129Z"/>
          <circle class="cls-1" cx="20.022" cy="31.066" r="2.038"/>
          <circle class="cls-1" cx="13.911" cy="31.066" r="2.038"/>
          <path class="cls-1" d="M7.762,29.463a1.607,1.607,0,1,0,1.605,1.608v0a1.605,1.605,0,0,0-1.605-1.606Z"/>
          <path class="cls-1" d="M32.217,35.384a1.285,1.285,0,1,0,1.28,1.29v-.006A1.284,1.284,0,0,0,32.217,35.384Z"/>
          <path class="cls-1" d="M7.8,35.761a1.6,1.6,0,1,0,1.6,1.6,1.6,1.6,0,0,0-1.6-1.6Z"/>
          <path class="cls-1" d="M38.226,36.668a.779.779,0,1,0-.779.778.779.779,0,0,0,.779-.778Z"/>
          <circle class="cls-1" cx="13.911" cy="37.19" r="1.751"/>
          <circle class="cls-1" cx="20.022" cy="37.19" r="2.038"/>
          <path class="cls-1" d="M1.687,36.411a.779.779,0,1,0,.778.779A.779.779,0,0,0,1.687,36.411Z"/>
          <circle class="cls-1" cx="26.135" cy="43.313" r="1.335"/>
          <circle class="cls-1" cx="20.022" cy="43.313" r="1.687"/>
          <circle class="cls-1" cx="13.911" cy="43.313" r="1.335"/>
          <path class="cls-1" d="M7.8,42.569a.779.779,0,1,0,.778.779.779.779,0,0,0-.778-.779Z"/>
          <path class="cls-2" d="M40.417,26.744h0c-.328-.184-.656-.362-.978-.537-2.286-1.244-4.265-2.32-4.265-4.342,0-2.21,2.159-3.937,4.924-3.937a8.076,8.076,0,0,1,5.807,2.794l3.446-3.3a12.7,12.7,0,0,0-9.2-4.172,11.968,11.968,0,0,0-7.692,2.622,8.592,8.592,0,0,0-3.2,6.669c0,3.216,1.979,5.738,6.415,8.18,3.865,2.145,5.439,3.218,5.439,5.225,0,2.2-2.479,4.064-5.415,4.064a8.043,8.043,0,0,1-4.909-1.748l-.061-.048L30.7,38.19c-.03-.021-.059-.045-.089-.068l-.056-.043-.09-.071L30.449,38a12.443,12.443,0,0,1-1.905-1.981h0l-.1-.127c-.23-.313-.448-.635-.649-.965L23.774,37.5a11.942,11.942,0,0,0,2.26,3,13.445,13.445,0,0,0,9.2,4.111c6.948,0,11.8-3.9,11.8-9.488C47.027,31.679,45.174,29.336,40.417,26.744Z"/>
        </g>
      </g>
    </g>
  </g>
</svg>
