<svg xmlns="http://www.w3.org/2000/svg" viewBox="0 0 512 60.2"><path d="M33.7,47.5l-2-30.8L21.8,47.5H16.1l-9.7-31-1.8,31H0L2.1,12.6H9.9l9.2,29.5,9.5-29.5H36l2.7,34.9Z"/><path d="M77.5,38.3h-14l-3,9.2h-5L67.3,12.6h6.6L85.7,47.5H80.6Zm-1.3-4L70.5,17,64.8,34.3Z"/><path d="M106.7,47.5a17.3,17.3,0,0,1-5.3-3V39.4A16.1,16.1,0,0,0,112.3,44a8.4,8.4,0,0,0,5.1-1.4,5.1,5.1,0,0,0,1.7-4,4.8,4.8,0,0,0-.6-2.4,6.6,6.6,0,0,0-1.9-1.8,24.5,24.5,0,0,0-4-2L109.4,31a16,16,0,0,1-5.9-4,9.2,9.2,0,0,1-1.9-5.6,9.8,9.8,0,0,1,1.4-5.1,8.7,8.7,0,0,1,3.9-3.4,12.8,12.8,0,0,1,6.1-1.3,17.6,17.6,0,0,1,5.8,1,11.9,11.9,0,0,1,4,2.5v5.2a14.5,14.5,0,0,0-4.5-3.1,12.5,12.5,0,0,0-5.3-1,8.1,8.1,0,0,0-4.8,1.2,4.2,4.2,0,0,0-1.6,3.6,4.5,4.5,0,0,0,.6,2.4,8.5,8.5,0,0,0,1.9,1.9,24.4,24.4,0,0,0,3.3,1.7l3.5,1.5a21,21,0,0,1,4.8,2.8,9.2,9.2,0,0,1,2.6,3.1,8.7,8.7,0,0,1,.9,4,9.6,9.6,0,0,1-1.5,5.3,10,10,0,0,1-4,3.6,14.8,14.8,0,0,1-6.1,1.2A17,17,0,0,1,106.7,47.5Z"/><path d="M164.4,17.1H153.9V47.5h-4.8V17.1H138.9V12.6h25.5Z"/><path d="M203.7,43.2v4.3H182V12.6h21.5V17H186.8V27h15.7v4.3H186.8V43.2Z"/><path d="M241.8,47.5,228.2,31.1V47.5h-4.8V12.6h13.5a12.1,12.1,0,0,1,5.5,1.3,8.9,8.9,0,0,1,3.6,3.6,9.7,9.7,0,0,1,1.3,5.1,9.8,9.8,0,0,1-1.3,5.2,9.7,9.7,0,0,1-4,3.5,13.5,13.5,0,0,1-5.9,1.2h-1l13.1,15ZM228.2,28.8h6.9a8.1,8.1,0,0,0,5.4-1.6,5.4,5.4,0,0,0,1.8-4.4,5.4,5.4,0,0,0-1.7-4.2,6.4,6.4,0,0,0-4.7-1.6h-7.7Z"/><path d="M309.3,12.6l-9.2,34.9H294l-7.8-30.4-7.8,30.4h-6.2l-8.8-34.9h5.2l6.8,29.6L283,12.6h6.5L297,42.2l7.2-29.6Z"/><path d="M423.1,47.5,409.5,31.1V47.5h-4.9V12.6h13.5a12.1,12.1,0,0,1,5.5,1.3,9.8,9.8,0,0,1,3.7,3.6,10.7,10.7,0,0,1,1.3,5.1,9.9,9.9,0,0,1-1.4,5.2,8.9,8.9,0,0,1-3.9,3.5,14,14,0,0,1-6,1.2h-1l13.1,15ZM409.5,28.8h6.8c2.4,0,4.2-.5,5.4-1.6a5.4,5.4,0,0,0,1.8-4.4,5.4,5.4,0,0,0-1.6-4.2,6.5,6.5,0,0,0-4.8-1.6h-7.6Z"/><path d="M467.8,47.5,452.7,29.9V47.5h-4.8V12.6h4.8V28.3l14.8-15.7H474L457.9,28.8l16.4,18.7Z"/><path d="M494.5,47.5a18.6,18.6,0,0,1-5.3-3V39.4c3.4,3,7,4.6,10.9,4.6a8.4,8.4,0,0,0,5.1-1.4,5.1,5.1,0,0,0,1.7-4,4.8,4.8,0,0,0-.6-2.4,5.5,5.5,0,0,0-1.9-1.8,20.9,20.9,0,0,0-4-2L497.2,31a14.8,14.8,0,0,1-5.8-4,8.6,8.6,0,0,1-1.9-5.6,9.7,9.7,0,0,1,1.3-5.1,8.7,8.7,0,0,1,3.9-3.4,13.1,13.1,0,0,1,6.1-1.3,17.2,17.2,0,0,1,5.8,1,11.9,11.9,0,0,1,4,2.5v5.2a14.5,14.5,0,0,0-4.5-3.1,12.4,12.4,0,0,0-5.2-1,8.4,8.4,0,0,0-4.9,1.2,4.5,4.5,0,0,0-1.6,3.6,4.5,4.5,0,0,0,.6,2.4,8.5,8.5,0,0,0,1.9,1.9,24.4,24.4,0,0,0,3.3,1.7l3.5,1.5a21,21,0,0,1,4.8,2.8,10.9,10.9,0,0,1,2.7,3.1,10.2,10.2,0,0,1,.8,4,10.5,10.5,0,0,1-1.4,5.3,10.3,10.3,0,0,1-4.1,3.6,14.4,14.4,0,0,1-6.1,1.2A17,17,0,0,1,494.5,47.5Z"/><path d="M384.7,60.2H324.5V0h60.2Zm-55.3-4.9h50.5V4.8H329.4Z"/><path d="M354.6,11.6a18.5,18.5,0,1,0,18.5,18.5A18.4,18.4,0,0,0,354.6,11.6Zm0,32.1a13.6,13.6,0,1,1,13.6-13.6A13.6,13.6,0,0,1,354.6,43.7Z"/></svg>