<svg id="Layer_1" data-name="Layer 1" xmlns="http://www.w3.org/2000/svg" width="26" height="48" viewBox="0 0 26 48">
  <defs>
    <style>
      .cls-1 {
        fill: #d9725c;
      }
    </style>
  </defs>
  <title>money-symbol-3-icon-48x48</title>
  <g>
    <path class="cls-1" d="M35.236,29.445a10.566,10.566,0,0,0-2.088-3.334,9.831,9.831,0,0,0-3.114-2.271A9.146,9.146,0,0,0,26.2,23H26V6h.2a7.146,7.146,0,0,1,3,.659A7.826,7.826,0,0,1,31.682,8.47a8.589,8.589,0,0,1,1.693,2.708,1,1,0,0,0,.931.634.983.983,0,0,0,.366-.07,1,1,0,0,0,.564-1.3,10.588,10.588,0,0,0-2.088-3.334A9.807,9.807,0,0,0,30.034,4.84,9.146,9.146,0,0,0,26.2,4H26V1a1,1,0,0,0-2,0V47a1,1,0,0,0,2,0V44h.2a9.138,9.138,0,0,0,3.834-.841,9.812,9.812,0,0,0,3.114-2.27,10.566,10.566,0,0,0,2.088-3.334,11.143,11.143,0,0,0,0-8.11Zm-1.861,7.377a8.573,8.573,0,0,1-1.693,2.707A7.807,7.807,0,0,1,29.2,41.341a7.153,7.153,0,0,1-3,.659H26V25h.2a7.16,7.16,0,0,1,3,.658,7.825,7.825,0,0,1,2.482,1.813,8.573,8.573,0,0,1,1.693,2.707,9.141,9.141,0,0,1,0,6.644Z" transform="translate(-10)"/>
    <path class="cls-1" d="M21,0a1,1,0,0,0-1,1V4h-.2a9.149,9.149,0,0,0-3.834.84,9.8,9.8,0,0,0-3.114,2.271,10.58,10.58,0,0,0-2.088,3.334,11.143,11.143,0,0,0,0,8.11,10.58,10.58,0,0,0,2.088,3.334,9.8,9.8,0,0,0,3.114,2.271A9.149,9.149,0,0,0,19.8,25H20V42h-.2a7.153,7.153,0,0,1-3-.659,7.807,7.807,0,0,1-2.482-1.812,8.589,8.589,0,0,1-1.693-2.707,1,1,0,0,0-1.861.733,10.584,10.584,0,0,0,2.087,3.334,9.821,9.821,0,0,0,3.115,2.27A9.138,9.138,0,0,0,19.8,44H20v3a1,1,0,0,0,2,0V1A1,1,0,0,0,21,0ZM16.8,22.341a7.826,7.826,0,0,1-2.482-1.811,8.616,8.616,0,0,1-1.693-2.708,9.141,9.141,0,0,1,0-6.644A8.616,8.616,0,0,1,14.318,8.47,7.826,7.826,0,0,1,16.8,6.659,7.149,7.149,0,0,1,19.8,6H20V23h-.2A7.149,7.149,0,0,1,16.8,22.341Z" transform="translate(-10)"/>
  </g>
</svg>
