<svg id="icons" xmlns="http://www.w3.org/2000/svg" width="48" height="48" viewBox="0 0 48 48">
  <defs>
    <style>
      .cls-1 {
        fill: #d9725c;
      }
    </style>
  </defs>
  <title>money-equals-data-icon-03</title>
  <path class="cls-1" d="M43.059,10.7,25.918.885a3.871,3.871,0,0,0-3.836,0L4.941,10.7A3.871,3.871,0,0,0,3,14.051v19.9A3.869,3.869,0,0,0,4.941,37.3l17.141,9.816a3.868,3.868,0,0,0,3.836,0L43.058,37.3A3.868,3.868,0,0,0,45,33.95v-19.9A3.871,3.871,0,0,0,43.059,10.7ZM23.076,2.62a1.865,1.865,0,0,1,1.848,0l17.064,9.772L33.939,17,24.5,11.552a1,1,0,0,0-1,0L14.061,17,6.012,12.393ZM24,34.427l-8.2-4.733L24,25l8.2,4.7Zm9.03-6.561L25,23.267V14.151l8.03,4.636ZM23,23.267l-8.03,4.6V18.787L23,14.151ZM5.935,35.563A1.862,1.862,0,0,1,5,33.95V14.118l7.97,4.564V29.791a1,1,0,0,0,.5.866l9.53,5.5v9.178Zm36.129,0L25,45.337V36.159l9.53-5.5a1,1,0,0,0,.5-.866V18.682L43,14.117V33.95A1.861,1.861,0,0,1,42.064,35.563Z"/>
</svg>
