<svg id="Layer_1" data-name="Layer 1" xmlns="http://www.w3.org/2000/svg" width="38" height="38" viewBox="0 0 38 38"><defs><style>.cls-1{fill:#e95427;}</style></defs><g id="Payroc-logo-main"><g id="Payroc-logo-main-2"><g id="Group_4814" data-name="Group 4814"><path class="cls-1" d="M1.33,20.13v2.49H0V16.19H1.33V17A2.48,2.48,0,0,1,3.38,16a2.4,2.4,0,0,1,2.54,2.54,2.4,2.4,0,0,1-2.54,2.54A2.48,2.48,0,0,1,1.33,20.13Zm.08-2.25a2.68,2.68,0,0,0,0,1.32c.21.64.94.77,1.63.77,1,0,1.62-.5,1.62-1.42S4.08,17.12,3,17.12c-.69,0-1.42.12-1.63.77Z"/><path class="cls-1" d="M12.16,18.27V20a1.78,1.78,0,0,0,.21.9H11a1.11,1.11,0,0,1-.17-.56h0a2.64,2.64,0,0,1-2,.73c-1,0-2.31-.4-2.31-1.62s1.3-1.62,2.31-1.62a2.72,2.72,0,0,1,2,.73v-.31c0-.87-.58-1.24-1.71-1.24a3.32,3.32,0,0,0-1.72.39L7,16.54A5.4,5.4,0,0,1,9.41,16C11.12,16,12.16,16.8,12.16,18.27Zm-1.29,1.12a1.89,1.89,0,0,0-1.66-.69c-.61,0-1.36.12-1.36.75s.81.76,1.36.76a1.93,1.93,0,0,0,1.66-.7Z"/><path class="cls-1" d="M18.73,16.19l-3.45,6.43H13.93l1.12-2-2.39-4.43h1.39l1.68,3.19,1.62-3.19Z"/><path class="cls-1" d="M19.48,20.91V16.19h1.33l0,1.17a2.53,2.53,0,0,1,2.15-1.27v1.14a2,2,0,0,0-2.1,1.23v2.45Z"/><path class="cls-1" d="M23.3,18.55c0-1.57,1.15-2.54,3-2.54s3,1,3,2.54-1.15,2.55-3,2.55S23.3,20.12,23.3,18.55Zm4.75-.14c0-1-.74-1.32-1.74-1.32a1.54,1.54,0,0,0-1.73,1.54c0,1,.73,1.39,1.73,1.39A1.61,1.61,0,0,0,28.05,18.41Z"/><path class="cls-1" d="M33.06,21.09c-1.85,0-3-1-3-2.54s1.14-2.55,3-2.55a2.86,2.86,0,0,1,2.63,1.3l-1.22.48a1.45,1.45,0,0,0-1.4-.71c-1,0-2,.49-2,1.48s1,1.48,2,1.48a1.51,1.51,0,0,0,1.43-.74l1.21.49A2.85,2.85,0,0,1,33.06,21.09Z"/></g><path class="cls-1" d="M23.74,33.65a14.64,14.64,0,0,1-12.8-6.85,15.93,15.93,0,0,1-1.92-5h1.15A13.63,13.63,0,0,0,15,29.57a13.47,13.47,0,1,0-2.2-18.92q-.33.42-.63.87A11.53,11.53,0,0,0,10.36,15L9.24,15a14.65,14.65,0,1,1,14.5,18.61Z"/></g></g></svg>