<svg id="Layer_1" data-name="Layer 1" xmlns="http://www.w3.org/2000/svg" width="195" height="36.082" viewBox="0 0 195 36.082">
  <defs>
    <style>
      .cls-1 {
        fill: #404040;
      }

      .cls-2 {
        fill: #17d69b;
      }
    </style>
  </defs>
  <title>popular-pays-logo-white</title>
  <g>
    <path class="cls-1" d="M45.887,11.342h8.244c4.567,0,7.1,2.591,7.1,6.323,0,3.788-2.535,6.572-7.1,6.572H49.619V30.5H45.887Zm3.732,3.008v6.88H53.8a3.3,3.3,0,0,0,3.649-3.509c0-2.006-1.226-3.371-3.649-3.371Z"/>
    <path class="cls-1" d="M68.642,16.578c4.317,0,7.186,2.619,7.186,7.13,0,4.457-3.036,7.13-7.186,7.13-4.345,0-7.213-2.618-7.213-7.13C61.429,19.252,64.465,16.578,68.642,16.578Zm0,11.531c2.117,0,3.482-1.7,3.482-4.4,0-2.757-1.365-4.372-3.482-4.372s-3.509,1.671-3.509,4.372S66.526,28.109,68.642,28.109Z"/>
    <path class="cls-1" d="M81.093,35.622H77.5V16.912h3.426v1.95h.111c.78-1.5,2.368-2.284,4.456-2.284,3.426,0,6.128,2.452,6.128,7.019s-2.841,7.241-6.35,7.241a4.421,4.421,0,0,1-4.234-2.283h-.111c.167,1.782.167,3.37.167,4.289Zm3.454-16.314c-1.978,0-3.4,1.588-3.454,4.205v.195c0,2.73,1.421,4.4,3.454,4.4,2.005,0,3.4-1.782,3.4-4.512S86.552,19.308,84.547,19.308Z"/>
    <path class="cls-1" d="M93.349,16.912h3.593v7.8c0,2.506,1.058,3.342,2.645,3.342,1.755,0,3.064-1.448,3.064-3.955V16.912h3.565V30.5h-3.4V28.555h-.111a4.332,4.332,0,0,1-4.122,2.283c-2.785,0-5.236-1.448-5.236-5.681Z"/>
    <path class="cls-1" d="M108.389,10.117h3.593V30.5h-3.593Z"/>
    <path class="cls-1" d="M118.555,22.845l2.618-.39c1.449-.223,1.727-.446,1.727-1.086a2.149,2.149,0,0,0-2.423-2.284,2.349,2.349,0,0,0-2.673,2.228h-3.343c.2-3.036,2.646-4.735,6.016-4.735,4.011,0,6.016,1.727,6.016,4.958V30.5h-3.426V28.889H122.9a4.933,4.933,0,0,1-4.345,1.949c-3.035,0-4.623-1.56-4.623-3.843S115.325,23.346,118.555,22.845Zm4.345,2.172v-1.2a1.973,1.973,0,0,1-1.337.641l-2.088.334c-1.449.25-2.006.891-2.006,1.838,0,1.058.724,1.7,2.117,1.7A3.121,3.121,0,0,0,122.9,25.017Z"/>
    <path class="cls-1" d="M128.639,16.912h3.426v2.062h.055a3.816,3.816,0,0,1,3.621-2.4,3.177,3.177,0,0,1,1.894.558l-.725,3.091a3.666,3.666,0,0,0-1.67-.446c-2.034,0-3.008,1.839-3.008,4.233V30.5h-3.593Z"/>
    <path class="cls-1" d="M139.167,11.342h8.244c4.568,0,7.1,2.591,7.1,6.323,0,3.788-2.534,6.572-7.1,6.572H142.9V30.5h-3.732ZM142.9,14.35v6.88h4.178a3.3,3.3,0,0,0,3.649-3.509c0-2.006-1.226-3.371-3.649-3.371Z"/>
    <path class="cls-1" d="M159.221,22.845l2.618-.39c1.448-.223,1.727-.446,1.727-1.086a2.149,2.149,0,0,0-2.423-2.284,2.35,2.35,0,0,0-2.674,2.228h-3.342c.195-3.036,2.646-4.735,6.016-4.735,4.01,0,6.015,1.727,6.015,4.958V30.5h-3.425V28.889h-.167a4.934,4.934,0,0,1-4.345,1.949c-3.036,0-4.623-1.56-4.623-3.843S155.99,23.346,159.221,22.845Zm4.345,2.172v-1.2a1.973,1.973,0,0,1-1.337.641l-2.089.334c-1.448.25-2,.891-2,1.838,0,1.058.724,1.7,2.117,1.7A3.121,3.121,0,0,0,163.566,25.017Z"/>
    <path class="cls-1" d="M184.969,26.605c0,1.393,1.448,1.866,2.841,1.866,1.866,0,2.869-.612,2.869-1.7,0-.947-.7-1.309-2.006-1.532l-2.479-.39c-2.339-.361-4.233-1.281-4.233-3.843,0-2.869,2.562-4.429,5.988-4.429s5.932,1.337,5.932,4.123h-3.313c0-1.254-1.2-1.755-2.647-1.755-1.476,0-2.506.585-2.506,1.587,0,.864.557,1.281,2.144,1.532l2.451.39c2.2.362,4.234,1.225,4.234,3.844,0,3.063-2.674,4.539-6.434,4.539-3.621,0-6.21-1.337-6.21-4.233Z"/>
    <path class="cls-1" d="M167.448,16.932h4.023l3.322,9.788h0l3.176-9.788h3.662l-4.992,13.986c-1.087,3.162-2.281,4.7-5.8,4.7l-1.782.019V32.786l1-.035c2.7,0,2.738-2.186,2.738-2.186Z"/>
    <polygon class="cls-2" points="0 0 0 35.656 10.187 35.656 10.187 30.562 5.094 30.562 5.094 30.562 5.094 5.094 10.187 5.094 10.187 0 0 0"/>
    <polygon class="cls-2" points="20.374 0 20.374 5.094 30.562 5.094 30.562 20.375 20.374 20.375 20.374 25.468 35.655 25.468 35.655 0 20.374 0"/>
  </g>
</svg>
