<svg data-name="Layer 1" xmlns="http://www.w3.org/2000/svg" width="105" height="85"><path d="M46.411 9.653q-7.321 4.206-11.838 7.321a51.56 51.56 0 0 0-9.19 7.944 36.655 36.655 0 0 0-6.7 9.813 44.772 44.772 0 0 0-3.271 13.24h7.477q9.657 0 15.109 4.828 5.607 4.674 5.607 13.863a18.528 18.528 0 0 1-4.984 12.3q-4.83 5.609-13.4 5.608-13.395 0-19.159-8.723Q.3 66.974.305 52.644a38.725 38.725 0 0 1 4.362-18.38A64.757 64.757 0 0 1 15.258 19.31 76.489 76.489 0 0 1 28.81 7.94Q35.974 3.268 40.8.308zm57.631 0q-7.32 4.206-11.837 7.321a51.56 51.56 0 0 0-9.19 7.944 37.259 37.259 0 0 0-6.854 9.969 46.524 46.524 0 0 0-3.115 13.084h7.476q9.658 0 15.109 4.828 5.609 4.674 5.608 13.863a18.524 18.524 0 0 1-4.985 12.3q-4.829 5.609-13.4 5.608-13.4 0-19.159-8.723-5.763-8.879-5.763-23.208A38.736 38.736 0 0 1 62.3 34.264 64.79 64.79 0 0 1 72.89 19.31 76.519 76.519 0 0 1 86.441 7.94Q93.607 3.268 98.435.308z" fill="#d5e1ec"/></svg>