<svg id="Layer_1" data-name="Layer 1" xmlns="http://www.w3.org/2000/svg" width="137" height="45" viewBox="0 0 137 45">
  <defs>
    <style>
      .cls-1 {
        fill: #231f20;
      }
    </style>
  </defs>
  <title>relay-logo-full-color</title>
  <g>
    <path class="cls-1" d="M28.671,10.69a15.7,15.7,0,0,1-.7,4.785,12.81,12.81,0,0,1-1.979,3.882A12.284,12.284,0,0,1,23,22.186a11.441,11.441,0,0,1-3.761,1.625l5.658,19.8H19.478l-5.056-19.14H9.366L6.055,43.613H1L8.4,1h9.811q5,0,7.726,2.407T28.671,10.69Zm-5.055.662q0-3.189-1.716-4.574a6.727,6.727,0,0,0-4.364-1.384H12.661L10.073,20.441h5.116a8.7,8.7,0,0,0,3.341-.632,7.705,7.705,0,0,0,2.678-1.836,8.489,8.489,0,0,0,1.775-2.859A10.471,10.471,0,0,0,23.616,11.352Z"/>
    <path class="cls-1" d="M54.251,5.574h-12.4L39.445,19.357h11.8l-.782,4.274H38.722L36.074,39.039H49.436l-.783,4.574H30.3L37.7,1H55.033Z"/>
    <path class="cls-1" d="M72.547,43.613H55.333L62.736,1h5.177L61.352,38.8H73.39Z"/>
    <path class="cls-1" d="M98.428,43.613,98.006,33.5H85.367L80.913,43.613h-5.3L94.756,1h6.8l2.107,42.613Zm-1.084-37.8H97.1L86.931,29.409H98.066Z"/>
    <path class="cls-1" d="M120.7,26.459l-2.949,17.154h-5.116l2.949-17.154L109.442,1h5.477l3.972,20.163h.121L130.146,1h5.718Z"/>
  </g>
</svg>
