<svg id="Layer_1" data-name="Layer 1" xmlns="http://www.w3.org/2000/svg" width="48" height="48" viewBox="0 0 48 48"><defs><style>.cls-1{fill:#d9725c;}</style></defs><title>retirement-savings-48x48</title><path class="cls-1" d="M34.994,27A12.993,12.993,0,1,1,47.986,14.006,13.008,13.008,0,0,1,34.994,27Zm0-23.986A10.993,10.993,0,1,0,45.986,14.006,11.006,11.006,0,0,0,34.994,3.013Z"/><path class="cls-1" d="M36.062,21.668H33.927a3.6,3.6,0,0,1-1.57-.36,3.959,3.959,0,0,1-1.253-.959,4.391,4.391,0,0,1-.813-1.369,1,1,0,1,1,1.873-.7,2.437,2.437,0,0,0,.444.749,1.972,1.972,0,0,0,.619.477,1.612,1.612,0,0,0,.7.161h2.135a1.585,1.585,0,0,0,.7-.161,1.969,1.969,0,0,0,.618-.477,2.417,2.417,0,0,0,.444-.749,2.736,2.736,0,0,0,0-1.888,2.406,2.406,0,0,0-.444-.749,1.969,1.969,0,0,0-.618-.477,1.611,1.611,0,0,0-.7-.161H33.927a3.576,3.576,0,0,1-1.575-.365,3.962,3.962,0,0,1-1.246-.954,4.39,4.39,0,0,1-.815-1.371,4.726,4.726,0,0,1,0-3.287,4.372,4.372,0,0,1,.815-1.368,3.941,3.941,0,0,1,1.246-.955,3.572,3.572,0,0,1,1.575-.364h2.135a3.574,3.574,0,0,1,1.574.364,3.985,3.985,0,0,1,1.245.954A4.375,4.375,0,0,1,39.7,9.031a1,1,0,0,1-1.873.7,2.417,2.417,0,0,0-.444-.749,1.981,1.981,0,0,0-.618-.476,1.578,1.578,0,0,0-.7-.163H33.927a1.576,1.576,0,0,0-.7.163,1.961,1.961,0,0,0-.617.474,2.436,2.436,0,0,0-.446.751,2.728,2.728,0,0,0,0,1.885,2.423,2.423,0,0,0,.444.751,1.973,1.973,0,0,0,.619.476,1.58,1.58,0,0,0,.7.164h2.135a3.6,3.6,0,0,1,1.569.36,3.964,3.964,0,0,1,1.25.957,4.38,4.38,0,0,1,.815,1.369,4.737,4.737,0,0,1,0,3.291,4.41,4.41,0,0,1-.815,1.368,3.984,3.984,0,0,1-1.245.955A3.581,3.581,0,0,1,36.062,21.668Z"/><path class="cls-1" d="M34.994,23a1,1,0,0,1-1-1V6.01a1,1,0,1,1,2,0V22A1,1,0,0,1,34.994,23Z"/><path class="cls-1" d="M5.868,46.987a1,1,0,0,1-.43-.1L.583,44.577A1,1,0,0,1,.1,43.269L6.8,28.2a1,1,0,0,1,1.343-.5L13,30.012a1,1,0,0,1,.484,1.308l-6.7,15.074a.995.995,0,0,1-.914.593Zm-3.545-3.8,3.049,1.453L11.261,31.4,8.214,29.946Z"/><path class="cls-1" d="M16.173,36.405a1,1,0,0,1-.465-1.885l8.436-4.445a3.747,3.747,0,0,0-4.383-.639l-7.4,3.894a1,1,0,1,1-.932-1.769l7.4-3.894a5.735,5.735,0,0,1,6.9,1.168l.777.82a1,1,0,0,1-.259,1.573l-9.611,5.063A1,1,0,0,1,16.173,36.405Z"/><path class="cls-1" d="M25.779,44.988H6.75a1,1,0,0,1,0-2H25.535l11.444-5.929-.908-.584c-1.22-.855-2.565-.868-4.394-.066L24.41,39.874a1,1,0,0,1-.962-.056l-6.656-4.177a1,1,0,0,1,1.063-1.694l6.191,3.885,6.8-3.241c2.5-1.1,4.565-1.022,6.342.223l2.326,1.5a1,1,0,0,1-.081,1.728L26.239,44.876A.992.992,0,0,1,25.779,44.988Z"/></svg>