<svg id="icons" xmlns="http://www.w3.org/2000/svg" width="38" height="38" viewBox="0 0 38 38">
  <defs>
    <style>
      .cls-1 {
        fill: #d9725c;
      }
    </style>
  </defs>
  <title>security_lockpad-3-38x38</title>
  <path class="cls-1" d="M7.125,38h23.75a2.378,2.378,0,0,0,2.375-2.375V19.792a2.378,2.378,0,0,0-2.375-2.375H28.5V9.5a9.5,9.5,0,0,0-19,0v7.917H7.125A2.378,2.378,0,0,0,4.75,19.792V35.625A2.378,2.378,0,0,0,7.125,38ZM11.083,9.5a7.917,7.917,0,0,1,15.834,0v7.917H25.333V9.5a6.333,6.333,0,1,0-12.666,0v7.917H11.083ZM23.75,17.417h-9.5V9.5a4.75,4.75,0,0,1,9.5,0ZM6.333,19.792A.794.794,0,0,1,7.125,19h23.75a.794.794,0,0,1,.792.792V35.625a.794.794,0,0,1-.792.792H7.125a.794.794,0,0,1-.792-.792Z"/>
  <path class="cls-1" d="M16.79,27.594,15.849,32.3a.793.793,0,0,0,.776.947h4.75a.169.169,0,0,0,.032,0,.792.792,0,0,0,.791-.792.78.78,0,0,0-.088-.364l-.9-4.5a3.168,3.168,0,1,0-4.42,0Zm2.968.814.653,3.259h-2.82l.652-3.259c.018,0,.035,0,.052.006a2.937,2.937,0,0,0,1.411,0C19.722,28.41,19.741,28.413,19.758,28.408ZM19,23.75a1.571,1.571,0,0,1,.719,2.974,1.649,1.649,0,0,1-.176.083,1.54,1.54,0,0,1-.453.092,1.781,1.781,0,0,1-.179,0,1.553,1.553,0,0,1-.453-.092,1.4,1.4,0,0,1-.175-.083A1.57,1.57,0,0,1,19,23.75Z"/>
</svg>
