<?xml version="1.0" encoding="utf-8"?>
<!-- Generator: Adobe Illustrator 23.0.1, SVG Export Plug-In . SVG Version: 6.00 Build 0)  -->
<svg version="1.1" id="Layer_1" xmlns="http://www.w3.org/2000/svg" xmlns:xlink="http://www.w3.org/1999/xlink" x="0px" y="0px"
	 viewBox="-200 0 1300 700" style="enable-background:new 0 0 1000 700;" xml:space="preserve">
<style type="text/css">
	.st0{fill:#54A72F;}
	.st1{fill:#141414;}
</style>
<g>
	<g>
		<path class="st0" d="M393.11,15.159c48.42-19.62,104.19-20.2,153.04-1.71c34.61,13.02,65.65,35.55,88.39,64.74
			c19.83,25.3,33.2,55.64,38.27,87.4c33.85,3.19,66.6,17.6,91.48,40.82c23.48,21.68,39.81,51.16,44.91,82.78
			c6.28,39-3.23,80.55-26.83,112.37c-18.45,25.19-45.55,43.78-75.58,52.25c-10.42,2.79-21.13,5.33-31.99,4.95
			c-44.03-0.01-88.05,0-132.08-0.01c-11.57-0.05-23.27,0.4-34.66-2c-12.46-2.44-23.67-9.6-31.97-19.09
			c-6.18-7.07-9.67-16.07-11.72-25.13c-1.5-9.42-1.35-19-1.53-28.51c-0.13-34.93-0.03-69.86-0.07-104.79
			c-19.89-0.02-39.78,0.01-59.67-0.01c36.47-36.57,72.95-73.12,109.44-109.66c0.02,19.93-0.01,39.86,0.01,59.79
			c16.59,0.02,33.17,0,49.76,0.01c0,16.62,0.01,33.24-0.01,49.86c-16.59,0.01-33.17,0-49.75,0.01c-0.01,30.59,0,61.18,0,91.77
			c-0.01,9.58-0.3,19.38,2.46,28.66c1.64,5.6,4.68,11.03,9.56,14.42c5.23,3.72,11.82,4.8,18.12,4.78c30.03,0,60.05,0,90.07,0
			c12.94-0.07,25.97,0.48,38.79-1.61c31.51-4.95,60.21-24.6,76.43-52.04c18.62-30.61,20.61-70.47,5.31-102.85
			c-14.01-30.53-42.77-53.79-75.63-60.89c-10.84-2.19-22.13-3.61-33.11-1.66c-2.92,0.34-5.81-0.44-8.7-0.7
			c-0.92-32.93-13.43-64.93-32.92-91.27c-18.57-25.12-43.86-45.37-72.79-57.28c-22.82-9.43-47.81-13.64-72.46-12.11
			c-27.42,1.82-53.76,12.54-76.02,28.41c-26.86,19.13-48.47,45.22-63.63,74.43c-9.36,18.14-16.22,37.65-19.58,57.82
			c-5.24-0.02-10.46,0.36-15.69,0.52c-13.69-1.24-27.62-0.92-41.14,1.67c-16.76,3.37-32.58,11.75-44.34,24.21
			c-3.5,3.82-7.39,7.26-10.73,11.24c-16.63,19.03-26.28,43.95-26.83,69.22c-0.69,24.63,7.17,49.42,22.11,69.03
			c16.03,21.41,40.14,36.62,66.42,41.65c5.47,0.86,10.89,2.35,16.47,2.21c42.79,0,85.58-0.01,128.38,0c0.01,13.3,0.01,26.6,0,39.9
			c-47.46-0.01-94.92-0.02-142.37-0.07c-33.34-3.33-65.44-17.97-89.9-40.86c-16.42-15.34-29.4-34.4-37.3-55.45
			c-9.39-24.82-11.55-52.29-6.27-78.29c6.02-30.16,22.27-58,45-78.63c29.23-26.81,69.05-41.5,108.66-40.53
			c5.13-31.49,18.44-61.54,38.09-86.64C330.8,50.289,360.22,28.389,393.11,15.159z"/>
		<path class="st0" d="M0,551.869c33.25-0.01,66.5-0.01,99.75,0c0,6.33,0,12.66-0.01,19c-12.37,0-24.74-0.01-37.11,0
			c-0.01,28.04,0,56.08,0,84.11c-8.51,0.01-17.01,0.02-25.51,0c0.01-28.04,0.01-56.07,0-84.11c-12.37-0.02-24.75,0-37.12-0.01
			C0,564.529,0,558.199,0,551.869z"/>
		<path class="st0" d="M418.62,595.979c9.66-10.83,19.14-21.84,28.98-32.5c0.66-0.05,1.98-0.15,2.64-0.21
			c0.03,7.32-0.01,14.65,0.02,21.97c8.41,0,16.82,0,25.24,0c0,5.04,0,10.08,0,15.12c-8.42,0.02-16.84-0.01-25.25,0.02
			c0.07,9.86-0.13,19.73,0.09,29.59c0,4.4,2.87,8.89,7.34,9.83c6.15,1.22,12.32-0.98,17.81-3.6c0.02,5.3,0,10.6,0.01,15.9
			c-10.74,4.44-23.47,6.35-34.4,1.52c-7.98-3.51-12.42-12.19-12.56-20.64c-0.1-10.87,0-21.74-0.05-32.61
			c-3.29,0-6.58-0.01-9.86-0.01C418.62,598.889,418.62,597.429,418.62,595.979z"/>
		<path class="st0" d="M94.97,594.179c9.83-10.29,25.83-12.67,39.01-8.38c9.76,3.32,17.74,11.41,20.94,21.21
			c1.84,5.32,2.25,11,2.24,16.59c-16.6,0.04-33.2-0.02-49.8,0.03c0.38,7.71,4.94,15.36,12.47,17.94c12.43,4.64,25.93-0.6,35.92-8.27
			c0.02,4.64-0.05,9.29,0.05,13.94c-10.78,8.11-24.95,10.17-38.09,8.78c-9.57-1.04-19.01-5.3-25.22-12.8
			c-5.45-6.37-7.86-14.91-7.65-23.2C84.7,610.539,88.12,600.869,94.97,594.179 M114.7,598.939c-4.54,2.74-6.17,8.2-6.81,13.16
			c9.95,0.02,19.9,0.02,29.85,0c-0.7-5.2-2.59-10.99-7.58-13.54C125.39,596.249,119.34,596.309,114.7,598.939z"/>
		<path class="st0" d="M208.21,584.769c8.14-2.13,17.5-0.85,24.05,4.69c5.85,4.62,8.55,12.23,8.61,19.51c0.01,15.34,0,30.68,0,46.02
			c-7.25,0-14.5,0.01-21.75-0.01c0-13.66,0.02-27.32,0-40.97c-0.08-4.21-0.21-8.86-3.01-12.26c-3.37-3.94-9.71-4.04-13.9-1.38
			c-3.79,2.43-6.9,5.94-9.12,9.85c-0.22,14.91-0.02,29.84-0.09,44.77c-7.25,0-14.5,0-21.75,0c0-23.25,0-46.5,0-69.74
			c7.25-0.01,14.5-0.02,21.75,0c-0.01,3.24,0.01,6.48,0,9.73C197.07,590.339,202.17,586.379,208.21,584.769z"/>
		<path class="st0" d="M258.38,592.209c12.5-7.83,28.02-10.14,42.39-7.21c4.59,1.02,9.17,2.96,12.4,6.48
			c3.07,3.35,4.55,7.92,4.58,12.42c0.03,10.71-0.04,21.43,0.02,32.14c0.05,1.9,0.09,4.37,2.05,5.38c3.7,0.93,6.82-1.93,9.83-3.62
			c-0.04,4.1-0.03,8.2-0.02,12.31c-7.71,4.42-16.87,7.78-25.81,5.64c-3.46-0.8-5.91-3.69-6.94-6.97
			c-7.06,4.79-15.46,8.06-24.09,7.59c-7.88-0.2-15.64-5.72-17.69-13.45c-1.1-5.75,0.08-12.11,3.86-16.69
			c3.15-3.87,7.97-5.72,12.4-7.68c8.06-3.31,16.39-5.91,24.73-8.43c0.24-4.53-1.8-9.69-6.62-10.84c-11.46-2.79-23.2,2.9-31.09,11.04
			C258.37,604.279,258.36,598.239,258.38,592.209 M279.92,629.139c-4.14,3.44-4.06,11.14,1.14,13.52c5.37,1.95,10.96-1.2,14.96-4.64
			c-0.04-5.57,0-11.13-0.03-16.69C290.44,623.429,284.54,625.279,279.92,629.139z"/>
		<path class="st0" d="M360,594.979c5.41-6.36,13.19-11.15,21.74-11.15c9.1-0.54,18.6,4.02,22.97,12.2
			c2.84,5.16,3.37,11.18,3.18,16.97c-0.03,14,0,27.99-0.02,41.99c-7.25,0-14.5,0.01-21.75-0.01c0.01-13.64,0.02-27.28,0-40.92
			c-0.08-4.23-0.2-8.91-3.02-12.33c-3.38-3.92-9.71-4.02-13.89-1.36c-3.79,2.42-6.89,5.94-9.12,9.84
			c-0.22,14.92-0.02,29.85-0.09,44.78c-7.25,0-14.5,0-21.75,0c0-23.25,0-46.5,0-69.74c7.25-0.01,14.5-0.02,21.75,0
			C359.99,588.489,360.01,591.729,360,594.979z"/>
	</g>
	<g>
		<path class="st1" d="M551.72,559.999c10.98-6.92,24.18-9.57,37.03-9.42c12.71-0.08,25.66,2.48,36.73,8.93
			c0.04,7.72,0,15.44,0.02,23.16c-11.21-6.23-23.78-10.89-36.78-10.44c-10.39,0.07-21.07,3.79-28.13,11.63
			c-10.47,11.06-9.73,30.49,1.41,40.83c7.71,7.73,19.03,10.76,29.72,10.17c12.52-0.17,23.88-6.04,34.9-11.34
			c0.03,7.54-0.05,15.09,0.05,22.64c-16.88,9.27-36.96,12.38-55.87,8.88c-13.49-2.39-26.12-9.76-34.3-20.82
			c-9.3-12.05-11.82-28.43-8.31-43.05C531.39,578.129,540.49,567.079,551.72,559.999z"/>
		<path class="st1" d="M644.76,551.869c7.24-0.01,14.49-0.02,21.73,0c0.02,34.37,0,68.74,0.01,103.11
			c-7.25,0.02-14.5,0.01-21.75,0.01C644.75,620.609,644.74,586.239,644.76,551.869z"/>
		<path class="st1" d="M910.09,551.949c7.25-0.19,14.52-0.05,21.78-0.08c0.01,34.37,0.01,68.74,0,103.11
			c-7.25,0.01-14.5,0.02-21.75,0c-0.01-1.8-0.01-3.6,0.02-5.38c-11.96,10.15-31.71,8.86-42.01-3.06
			c-6.94-7.28-10.06-17.55-9.66-27.49c-0.15-11.71,5.3-23.64,15.25-30.12c10.77-7.05,25.13-6.37,36.4-0.81
			C910.11,576.069,910.17,564.009,910.09,551.949 M890.75,599.999c-5.59,2.44-8.69,8.38-9.57,14.17
			c-1.01,7.03-0.71,14.81,3.42,20.87c2.66,3.99,7.28,6.68,12.13,6.6c5.09,0.27,9.71-2.45,13.4-5.71c0-11.1-0.03-22.21,0.01-33.31
			C904.59,598.739,897.09,597.169,890.75,599.999z"/>
		<path class="st1" d="M714,584.249c11.32-1.49,23.53,0.54,32.73,7.64c6.62,4.78,11.16,12.18,12.52,20.23
			c1.5,9.41,0.74,19.71-4.56,27.89c-9.94,14.79-30.13,19.33-46.65,14.77c-11.88-3.16-22.2-12.67-25.07-24.8
			c-1.95-8.47-1.6-17.72,2.06-25.7C690.23,593.049,701.92,585.759,714,584.249 M717.13,597.629c-7.27,1.77-10.83,9.5-11.56,16.34
			c-0.68,7.47-0.74,15.53,2.85,22.35c4.39,8.77,18.66,9.48,23.98,1.29c3.58-5.48,4.03-12.31,4-18.67
			c-0.09-5.91-0.79-12.3-4.58-17.09C728.39,597.529,722.27,596.439,717.13,597.629z"/>
		<path class="st1" d="M774.24,585.259c7.25-0.04,14.5-0.01,21.75-0.02c0.09,14.89-0.14,29.78,0.12,44.66
			c0,4.73,2.28,10.25,7.37,11.35c8.04,2.3,16.12-3.91,18.54-11.29c0.25-14.9,0.03-29.81,0.11-44.71c7.24-0.02,14.49-0.01,21.74,0
			c0.01,23.24,0.01,46.49,0,69.73c-7.25,0.01-14.5,0.02-21.75,0c0-3.25-0.01-6.49,0.03-9.73c-4.2,4.65-9.33,8.76-15.51,10.3
			c-8.28,2-17.81,0.68-24.32-5.12c-5.58-4.76-8.13-12.27-8.08-19.46C774.25,615.729,774.26,600.499,774.24,585.259z"/>
	</g>
</g>
</svg>
