<svg id="Layer_1" data-name="Layer 1" xmlns="http://www.w3.org/2000/svg" width="263" height="50" viewBox="0 0 263 50"><defs><style>.cls-1{fill:#02548e;}</style></defs><path class="cls-1" d="M103.06,41l3.24-4A18.36,18.36,0,0,0,120,41.49c7.68,0,13.85-5.91,13.85-11.11v-2.6a16.13,16.13,0,0,1-13.22,6c-10.23,0-16.93-6.32-16.93-16.77S110.39.13,120.62.13a15.82,15.82,0,0,1,13.22,6V1.32h11.45V28.24c0,14.36-13.48,21.17-23.54,21.17-11.48,0-17.6-6.61-18.69-8.45Zm11.83-23.89c0,5.08,3.31,8.33,9.45,8.33a12.07,12.07,0,0,0,7.21-2.21,7.7,7.7,0,0,0,1.52-10.77,7.82,7.82,0,0,0-1.52-1.52,12.06,12.06,0,0,0-7.22-2.16C118.2,8.74,114.89,11.93,114.89,17.07Zm105.29.59c0-11,8.27-17.66,21.44-17.66S263,6.67,263,17.66s-8.27,17.72-21.38,17.72-21.44-6.8-21.44-17.72Zm11.16,0c0,5.72,4.32,8.74,10.28,8.74s10.27-3,10.27-8.74-4.3-8.74-10.27-8.74-10.28,2.95-10.28,8.74ZM59.61,24.22c0-8.39,8.81-11.11,15.72-11.11C80.06,12.87,90,17.78,90,17.78V15.65S84.48,8.33,77.33,8.33a25.3,25.3,0,0,0-11.75,2.54L62.93,3.49A42.43,42.43,0,0,1,79.75.12c12.47,0,19.91,5.55,19.77,15.65v8.66c0,3.45,2.93,9.3,2.93,9.3H89.27a9.41,9.41,0,0,1-1.19-3v-.06a17.48,17.48,0,0,1-12.75,4.61c-6.91,0-15.72-2.72-15.72-11.1Zm11,0c0,3.48,4.43,4.3,7.74,4.3s7.5-.82,9.74-4v-.65c-2.24-3.13-6.38-4-9.74-4s-7.74.82-7.74,4.31Zm135.7,9.53V15.12c0-4.07-2.13-6.61-6.47-6.61-3.74,0-6.64,2-8.78,5.85V27.65l.06,6.08H177.7V15.12c0-4.07-2.15-6.61-6.49-6.61-3.76,0-6.62,2-8.76,5.73V33.73H151V1.32h13.34V6.58A14.44,14.44,0,0,1,177.09.14c6.85,0,11.1,3.28,12.92,8.25A14.5,14.5,0,0,1,203.82.14c9.44,0,13.92,6.21,13.92,14.51V33.73Zm-169,0L30,12.2,22.53,33.73H11.47L0,1.32H11.11L17.84,22,24.92,1.32H35.1L42.18,22,48.91,1.32H59.85L48.33,33.73Z"/></svg>