<svg id="icons" xmlns="http://www.w3.org/2000/svg" width="48" height="48" viewBox="0 0 48 48">
  <defs>
    <style>
      .cls-1 {
        fill: #d9725c;
      }
    </style>
  </defs>
  <title>we-are-never-done-icon-03</title>
  <path class="cls-1" d="M43.059,10.7,25.918.885a3.871,3.871,0,0,0-3.836,0L4.941,10.7A3.871,3.871,0,0,0,3,14.051v19.9A3.869,3.869,0,0,0,4.941,37.3l16.753,9.594a.951.951,0,0,0,.2.115l.188.107a3.868,3.868,0,0,0,3.836,0L43.058,37.3A3.868,3.868,0,0,0,45,33.95v-19.9A3.871,3.871,0,0,0,43.059,10.7ZM23.076,2.62a1.865,1.865,0,0,1,1.848,0l16.451,9.422a24.873,24.873,0,0,0-8.329-2.371,15.388,15.388,0,0,0-9.521,1.871l-.025.01L13.47,17.343a1,1,0,0,0-.5.866v9.7a14.171,14.171,0,0,1-4.07-5.4c-1.639-3.731-1.934-6.556-2.128-10.551ZM14.97,19.828l8.03,4.6v9.423l-8.03-4.635ZM25,24.426l8.03-4.6v9.386L25,33.849Zm-1-1.732-7.931-4.542L24,13.573l7.931,4.579ZM5,33.95V15.3a24.645,24.645,0,0,0,2.069,8.017,15.406,15.406,0,0,0,6.3,7.268.918.918,0,0,0,.1.077L23.5,36.448a1,1,0,0,0,1,0l8.412-4.857a14.182,14.182,0,0,1-2.631,6.217c-2.395,3.275-4.682,4.947-8.018,7.106L5.935,35.563A1.862,1.862,0,0,1,5,33.95Zm37.064,1.613L26.229,44.632A24.5,24.5,0,0,0,31.9,38.988a15.387,15.387,0,0,0,3.126-9.142c0-.019.008-.036.008-.055V18.209a1,1,0,0,0-.5-.866l-8.414-4.858a14.2,14.2,0,0,1,6.713-.826c4.038.443,6.63,1.594,10.171,3.413V33.95A1.861,1.861,0,0,1,42.064,35.563Z"/>
</svg>
