<svg id="icons" xmlns="http://www.w3.org/2000/svg" width="48" height="48" viewBox="0 0 48 48">
  <defs>
    <style>
      .cls-1 {
        fill: #d9725c;
      }
    </style>
  </defs>
  <title>we-are-inventors-creators-and-believers-icon-03</title>
  <path class="cls-1" d="M43.059,10.7,25.918.885a3.871,3.871,0,0,0-3.836,0L4.941,10.7A3.871,3.871,0,0,0,3,14.051v19.9A3.869,3.869,0,0,0,4.941,37.3l17.141,9.816a3.868,3.868,0,0,0,3.836,0L43.058,37.3A3.868,3.868,0,0,0,45,33.95v-19.9A3.871,3.871,0,0,0,43.059,10.7ZM23,35.025l-8,4.582v-9.3l8-4.582Zm11-6.451L26.014,24,34,19.425,41.989,24ZM33,17.691l-8,4.582v-9.3l8-4.582Zm-9-6.448L16.011,6.668l7.065-4.046a1.863,1.863,0,0,1,1.848,0l7.065,4.046Zm-1,1.732v9.3l-8-4.582v-9.3Zm-9,6.45L21.986,24,14,28.574,6.011,24ZM13,30.306v9.3L5.935,35.561A1.865,1.865,0,0,1,5,33.947V25.724Zm12-4.582,8,4.582v9.3l-8-4.582Zm17.064,9.837L35,39.607v-9.3l8-4.582v8.223A1.863,1.863,0,0,1,42.064,35.561ZM43,14.051v8.222l-8-4.582v-9.3l7.064,4.046A1.862,1.862,0,0,1,43,14.051ZM5.936,12.437,13,8.391v9.3L5,22.273V14.051A1.862,1.862,0,0,1,5.936,12.437ZM24.924,45.38a1.868,1.868,0,0,1-1.848,0L16.01,41.333,24,36.757l7.99,4.576Z"/>
</svg>
